<svg xmlns="http://www.w3.org/2000/svg" xmlns:xlink="http://www.w3.org/1999/xlink" width="44" height="44" viewBox="0 0 44 44">
  <defs>
    <linearGradient id="linear-gradient" x1="0.09" y1="0.021" x2="1" y2="0.962" gradientUnits="objectBoundingBox">
      <stop offset="0" stop-color="#e0b154"/>
      <stop offset="0.204" stop-color="#c18829"/>
      <stop offset="0.495" stop-color="#ebc55c"/>
      <stop offset="0.73" stop-color="#ddae45"/>
      <stop offset="1" stop-color="#be8122"/>
    </linearGradient>
  </defs>
  <g id="call_address" transform="translate(-1221 -3874)">
    <rect id="Rectangle_1723" data-name="Rectangle 1723" width="44" height="44" rx="10" transform="translate(1221 3874)" fill="url(#linear-gradient)"/>
    <path id="Icon_awesome-phone-alt" data-name="Icon awesome-phone-alt" d="M.448,11.1,3.885,9.629a.736.736,0,0,1,.859.212L6.266,11.7A11.373,11.373,0,0,0,11.7,6.263L9.843,4.741a.735.735,0,0,1-.212-.859L11.1.445a.741.741,0,0,1,.844-.427l3.191.736a.736.736,0,0,1,.571.718A14.236,14.236,0,0,1,1.473,15.71a.736.736,0,0,1-.718-.571L.018,11.949a.745.745,0,0,1,.43-.847Z" transform="translate(1235.54 3888.54)" fill="#fff"/>
  </g>
</svg>
