<svg xmlns="http://www.w3.org/2000/svg" xmlns:xlink="http://www.w3.org/1999/xlink" width="211" height="63" viewBox="0 0 211 63"><defs><linearGradient id="a" x1="0.08" x2="1" y2="0.92" gradientUnits="objectBoundingBox"><stop offset="0" stop-color="#e0b154"/><stop offset="0.204" stop-color="#c18829"/><stop offset="0.495" stop-color="#ebc55c"/><stop offset="0.73" stop-color="#ddae45"/><stop offset="1" stop-color="#be8122"/></linearGradient></defs><g transform="translate(-692 -1002)"><rect width="211" height="63" rx="31.5" transform="translate(692 1002)" fill="url(#a)"/><g transform="translate(728.43 1015.862)"><path d="M1427,2361.309a9.725,9.725,0,0,1,2.265-6.971,6.86,6.86,0,0,1,6.246-2.385,8.651,8.651,0,0,1,2.08.664c.384.155.775.294,1.165.437a2.313,2.313,0,0,0,1.61.022c.719-.254,1.435-.52,2.157-.767a7.16,7.16,0,0,1,3.028-.461,6.981,6.981,0,0,1,5.184,2.786c.167.223.1.35-.089.489a7.69,7.69,0,0,0-1.544,1.475,6.461,6.461,0,0,0-1.388,4.839,6.558,6.558,0,0,0,3.518,5.175c.484.278.477.194.283.768a13.37,13.37,0,0,1-1.373,2.867,17.835,17.835,0,0,1-2.546,3.371,3.861,3.861,0,0,1-3.044,1.229,5.051,5.051,0,0,1-1.681-.427,8.143,8.143,0,0,0-2.265-.735,6.211,6.211,0,0,0-3.124.431c-.4.16-.8.321-1.205.47a3.594,3.594,0,0,1-4.057-.953,17.446,17.446,0,0,1-2.979-4.093,19.527,19.527,0,0,1-2-5.808A12.185,12.185,0,0,1,1427,2361.309Z" transform="translate(-1426.996 -2344.357)" fill="#fff"/><path d="M3112.453,2472.784c-.3,0-.6,0-.9,0-.386-.008-.4-.008-.492-.4a2.768,2.768,0,0,0-.859-1.481,2.7,2.7,0,0,0-.789-.515,4.858,4.858,0,0,0-4.147.083,2.23,2.23,0,0,0-1.341,2.052,1.787,1.787,0,0,0,.784,1.577,6.019,6.019,0,0,0,2,.869c1.212.344,2.457.571,3.651.982a8.947,8.947,0,0,1,1.367.6,4.068,4.068,0,0,1,2.233,4.3,4.6,4.6,0,0,1-3.091,4.1,8.972,8.972,0,0,1-7.307-.148,4.744,4.744,0,0,1-2.793-3.59c-.139-.749-.127-.761.614-.759.532,0,1.064.012,1.6,0,.243,0,.345.087.4.329a2.821,2.821,0,0,0,1.477,1.909,5.468,5.468,0,0,0,4.484.33,3.032,3.032,0,0,0,1.316-.869,2.14,2.14,0,0,0-.313-3.233,5.911,5.911,0,0,0-1.993-.877c-1.215-.337-2.461-.558-3.657-.969a6.908,6.908,0,0,1-1.738-.851,3.993,3.993,0,0,1-1.784-3.421,4.77,4.77,0,0,1,1.457-3.479,4.92,4.92,0,0,1,2.1-1.193,8.2,8.2,0,0,1,5.8.15,4.8,4.8,0,0,1,3.1,3.567c.039.178.053.361.075.542.047.375.046.378-.352.386-.3.006-.6,0-.9,0Z" transform="translate(-3017.196 -2454.436)" fill="#f9f9fa"/><path d="M2731.57,2565.523a6.577,6.577,0,0,1,1.134-1.167,5.024,5.024,0,0,1,7.338,1.834,7.776,7.776,0,0,1,.794,3,9.078,9.078,0,0,1-.406,3.535,5.223,5.223,0,0,1-2.071,2.843,5.1,5.1,0,0,1-5.674-.122,3.927,3.927,0,0,1-.828-.855.52.52,0,0,0-.274-.259c-.011.2-.029.374-.03.548-.01,1.578-.016,3.156-.027,4.734-.005.773-.008.775-.792.777-.416,0-.831,0-1.246-.013-.558-.018-.582.1-.6-.619-.014-.7-.006-1.4,0-2.093q.026-4.135.054-8.27c.009-1.561.009-3.122.015-4.684,0-.232,0-.466.02-.7.028-.354.056-.385.426-.395.581-.016,1.163-.006,1.744-.026.262-.009.347.1.356.347A13.083,13.083,0,0,0,2731.57,2565.523Zm6.657,4.38a4.888,4.888,0,0,0-.761-2.817,3.054,3.054,0,0,0-5.278.2,5.5,5.5,0,0,0-.1,5.125,2.86,2.86,0,0,0,2.77,1.776,3.055,3.055,0,0,0,2.844-1.844A5.909,5.909,0,0,0,2738.228,2569.9Z" transform="translate(-2663.93 -2545.437)" fill="#f9f9fa"/><path d="M2453.1,2564.2a5.564,5.564,0,0,1,1.224-1.22,5.043,5.043,0,0,1,6.97,1.452,6.339,6.339,0,0,1,1,3.141,16.149,16.149,0,0,1-.077,2.636,5.856,5.856,0,0,1-1.376,3.2,4.849,4.849,0,0,1-4.734,1.567,4.213,4.213,0,0,1-2.764-1.715c-.057-.075-.084-.185-.222-.208a.828.828,0,0,0-.071.513c-.015,1.644-.024,3.288-.035,4.932,0,.116,0,.232,0,.349a.221.221,0,0,1-.254.237l-2.093,0c-.166,0-.235-.1-.239-.253,0-.133-.01-.265-.009-.4q.035-6.576.072-13.152c0-.864.007-1.727.019-2.591.005-.383.014-.4.391-.4.6-.006,1.2.014,1.794.012.242,0,.315.112.311.337-.009.511,0,1.022,0,1.533Zm6.59,4.343a4.6,4.6,0,0,0-.187-1.54,3.365,3.365,0,0,0-1.835-2.35,3.086,3.086,0,0,0-4.126,1.6,5.92,5.92,0,0,0,.177,5.078,3.085,3.085,0,0,0,5.459-.252A5.11,5.11,0,0,0,2459.688,2568.547Z" transform="translate(-2399.351 -2544.204)" fill="#f9f9fa"/><path d="M2119.445,2468.968c.349,0,.7.018,1.046-.005a.477.477,0,0,1,.54.389c.387,1.113.79,2.22,1.184,3.33q1.8,5.063,3.6,10.127.549,1.547,1.07,3.1c.117.35.1.368-.262.361-.681-.012-1.362-.035-2.043-.046a.493.493,0,0,1-.526-.409c-.411-1.279-.866-2.543-1.279-3.822a.476.476,0,0,0-.538-.372c-1.877-.046-3.755-.034-5.632-.04-.55,0-.549.006-.73.529-.429,1.239-.856,2.478-1.29,3.715-.148.422-.157.423-.6.423-.631,0-1.263,0-1.894-.011-.381-.009-.405-.051-.273-.415q1.071-2.947,2.15-5.891,1.752-4.79,3.507-9.58c.125-.343.272-.68.373-1.03a.463.463,0,0,1,.547-.375c.348.019.7,0,1.046,0Zm-.019,2.935a1.893,1.893,0,0,0-.141.225c-.693,1.9-1.373,3.808-2,5.732-.139.426-.282.851-.435,1.272-.078.215-.013.316.208.331.083.006.166.016.249.016,1.428-.006,2.857-.01,4.286-.024.32,0,.334-.038.252-.359-.029-.112-.064-.223-.1-.333-.519-1.575-1.034-3.152-1.56-4.725C2119.952,2473.348,2119.7,2472.669,2119.426,2471.9Z" transform="translate(-2077.584 -2455.639)" fill="#f9f9fa"/><path d="M3988.036,2576.484h-3.889l-.3,0c-.209,0-.276.11-.278.317a3.254,3.254,0,0,0,2.425,3.307,3.9,3.9,0,0,0,2.067-.016,2.6,2.6,0,0,0,1.726-1.321.493.493,0,0,1,.509-.3c.548.013,1.1.01,1.645.026.4.011.438.061.339.444a4.107,4.107,0,0,1-1.724,2.364,6.777,6.777,0,0,1-7.295-.064,5.267,5.267,0,0,1-1.89-2.567,8.2,8.2,0,0,1,.219-6.074,5.248,5.248,0,0,1,4.673-3.215,6.223,6.223,0,0,1,2.748.347,5.159,5.159,0,0,1,3.194,3.455,9.08,9.08,0,0,1,.32,3.056c-.007.3-.187.3-.4.3q-1.446-.01-2.892-.016c-.4,0-.8,0-1.2,0Zm-1.238-1.821v.02c.814,0,1.629,0,2.443,0,.86,0,.741.013.6-.729a2.827,2.827,0,0,0-1.822-2.258,3.189,3.189,0,0,0-4.377,2.471c-.08.426-.031.491.417.493C3984.971,2574.666,3985.885,2574.662,3986.8,2574.662Z" transform="translate(-3853.476 -2551.037)" fill="#f9f9fa"/><path d="M3556.152,2573.429a6.921,6.921,0,0,1,.473-2.825,5.322,5.322,0,0,1,4.345-3.511,6.761,6.761,0,0,1,3.251.212,5.471,5.471,0,0,1,3.764,4.378,8.823,8.823,0,0,1,.008,3.559,5.5,5.5,0,0,1-5.243,4.687,6.346,6.346,0,0,1-3.663-.7,5.67,5.67,0,0,1-2.847-4.273A7.734,7.734,0,0,1,3556.152,2573.429Zm2.63.029a6.443,6.443,0,0,0,.4,2.357,3.13,3.13,0,0,0,3.72,1.93,2.946,2.946,0,0,0,2.219-1.95,6.351,6.351,0,0,0,.388-2.585,5.513,5.513,0,0,0-.47-2.217,3.181,3.181,0,0,0-5.7-.167A5.8,5.8,0,0,0,3558.782,2573.459Z" transform="translate(-3449.92 -2548.786)" fill="#f9f9fa"/><path d="M3392.382,2518.464q0-1.719,0-3.437c0-.489-.023-.5-.506-.5-.348,0-.7-.022-1.046-.02-.216,0-.295-.1-.293-.3,0-.482.009-.963,0-1.445,0-.222.117-.284.314-.282.348,0,.7,0,1.046,0,.47-.006.481-.007.492-.461.016-.681.013-1.361.022-2.042.005-.462.008-.469.472-.472q.872-.006,1.744.011c.353.007.364.017.368.361.01.7,0,1.395.008,2.093,0,.525.029.551.567.555.5,0,1,.006,1.495-.01.256-.008.359.079.35.341-.017.464-.014.93-.01,1.395,0,.213-.093.3-.3.295-.548,0-1.1,0-1.644,0-.422.007-.411.015-.472.433a13.91,13.91,0,0,0-.062,2.088c0,1.444.028,2.888.045,4.332,0,.133,0,.266.01.4a1.238,1.238,0,0,0,1.2,1.278,6.674,6.674,0,0,0,.9.022c.194,0,.284.08.282.259-.005.5-.022,1-.028,1.494,0,.193-.122.265-.283.278-.331.028-.662.057-.993.06a5.51,5.51,0,0,1-2.059-.278,2.234,2.234,0,0,1-1.419-1.491,5.5,5.5,0,0,1-.233-1.615c-.008-1.113,0-2.225,0-3.337Z" transform="translate(-3292.573 -2494.161)" fill="#f9f9fa"/><path d="M3842.2,2571.184c.217-.1.232-.246.291-.359a3.14,3.14,0,0,1,3.439-1.63.282.282,0,0,1,.282.328c-.01.6-.009,1.2,0,1.793,0,.216-.08.3-.3.274a6.762,6.762,0,0,0-.793-.064,2.581,2.581,0,0,0-2.8,2.752c-.018,2.093-.015,4.186-.022,6.279,0,.333-.021.665,0,1,.014.27-.1.35-.35.344q-.971-.021-1.943-.022c-.239,0-.314-.108-.312-.336.008-.78,0-1.561,0-2.342q.018-4.658.04-9.317c0-.658-.041-.6.636-.612.415,0,.831-.006,1.246.007.522.016.588-.136.585.615C3842.2,2570.3,3842.2,2570.711,3842.2,2571.184Z" transform="translate(-3719.322 -2550.838)" fill="#f9f9fa"/><path d="M2146.929,2212.13c0-1.194-.017-2.39.006-3.584.016-.8.028-.656.65-.662.863-.007,1.727-.01,2.59.019a3.571,3.571,0,0,1,2.611,1.037,3.472,3.472,0,0,1,.9,1.688,5.837,5.837,0,0,1-.155,3.282,3.263,3.263,0,0,1-2.516,2.171,5.2,5.2,0,0,1-1.137.12c-.83,0-1.66-.01-2.49-.022-.469-.006-.475-.01-.475-.466,0-1.2,0-2.39,0-3.585Zm1.294-.05h-.013c0,.847-.005,1.694,0,2.541,0,.346.016.349.368.367a9.495,9.495,0,0,0,1.643-.018,2.343,2.343,0,0,0,2.095-1.662,4.07,4.07,0,0,0,.043-2.447,2.37,2.37,0,0,0-2.21-1.779c-.5-.028-1-.022-1.495-.018-.4,0-.422.012-.429.423C2148.213,2210.352,2148.223,2211.216,2148.223,2212.08Z" transform="translate(-2110.994 -2207.592)" fill="#f9f9fa"/><path d="M2456.009,2254.843a1.225,1.225,0,0,0,.308-.643c.314-1.186.628-2.372.952-3.555.129-.472.141-.474.65-.471.755.006.642-.093.851.662.286,1.039.547,2.084.824,3.126a3.844,3.844,0,0,0,.3.917,4.782,4.782,0,0,0,.4-1.351c.234-.932.44-1.871.661-2.806.125-.531.139-.544.707-.532.664.014.684-.033.488.668q-.724,2.587-1.445,5.175c-.121.428-.128.436-.576.429-.989-.017-.766.148-1.054-.8-.332-1.094-.616-2.2-.923-3.3-.038-.136-.092-.269-.15-.436a.987.987,0,0,0-.26.562c-.332,1.147-.656,2.3-.985,3.443-.148.519-.152.523-.667.522-.932,0-.721.075-.95-.727-.464-1.626-.892-3.261-1.331-4.895-.167-.621-.146-.644.488-.653a2.351,2.351,0,0,0,.249,0c.253-.032.359.1.408.328.09.4.191.807.284,1.211.2.888.4,1.778.61,2.666C2455.888,2254.518,2455.946,2254.653,2456.009,2254.843Z" transform="translate(-2402.502 -2247.771)" fill="#f9f9fa"/><path d="M1680.81,2206.469c-.327,2.675-1.5,4.75-4.115,5.8a3.772,3.772,0,0,1-1.6.308c-.412-.02-.411-.017-.424-.421a5.889,5.889,0,0,1,.927-3.258,6.727,6.727,0,0,1,4.4-3.169c.927-.215.787-.089.814.688C1680.813,2206.436,1680.811,2206.453,1680.81,2206.469Z" transform="translate(-1662.309 -2205.463)" fill="#f9f9fa"/><path d="M3149.566,2211.889a2.3,2.3,0,0,1-1.561.977,2.454,2.454,0,0,1-2.607-1.321,4.108,4.108,0,0,1-.388-1.932,3.741,3.741,0,0,1,.683-2.292,2.412,2.412,0,0,1,3.66-.124c.056.073.1.172.24.182a1.689,1.689,0,0,0,.05-.582c.025-.779.04-1.559.074-2.338.017-.385.033-.384.406-.4.726-.027.729-.027.731.674q.012,3.734.022,7.469c0,.116,0,.232,0,.349,0,.191-.1.268-.28.262-.065,0-.132,0-.2,0-.639.011-.638.011-.693-.621a2.457,2.457,0,0,0-.04-.244C3149.66,2211.944,3149.638,2211.938,3149.566,2211.889Zm.08-2.183c-.011-.215-.008-.431-.036-.644a2.029,2.029,0,0,0-.122-.429,1.549,1.549,0,0,0-1.5-1.1,1.513,1.513,0,0,0-1.52,1.06,3.047,3.047,0,0,0,.014,2.187,1.6,1.6,0,0,0,2.975-.01A2.35,2.35,0,0,0,3149.646,2209.707Z" transform="translate(-3059.294 -2203.959)" fill="#f9f9fa"/><path d="M3829.691,2210.056c.157-.049.236-.191.319-.294a1.786,1.786,0,0,1,1.4-.66,1.951,1.951,0,0,1,2.22,1.214,2.63,2.63,0,0,1,.2,1.02q.005,1.843-.013,3.687c0,.433-.019.443-.451.444-.947,0-.8.061-.811-.788-.013-1.046,0-2.093,0-3.139a1.332,1.332,0,0,0-.414-1.03,1.6,1.6,0,0,0-2.393.593,2.747,2.747,0,0,0-.125.932c-.008,1-.01,1.993-.025,2.989-.006.414-.017.423-.411.419-.89-.009-.8.083-.8-.759,0-2.475.031-4.949.05-7.423,0-.066,0-.133.007-.2a.434.434,0,0,1,0-.1c.124-.438.488-.205.744-.251.194-.035.416-.033.4.279-.01.249-.005.5,0,.747,0,.647,0,1.3.011,1.943C3829.611,2209.8,3829.568,2209.944,3829.691,2210.056Z" transform="translate(-3708.581 -2206.462)" fill="#f9f9fa"/><path d="M3972.695,2258.135c-.615,0-1.229-.006-1.845,0-.357,0-.407.066-.347.416a1.539,1.539,0,0,0,1.033,1.348,1.87,1.87,0,0,0,1.917-.338c.108-.1.151-.264.334-.271a3.713,3.713,0,0,1,.894.028c.137.028.094.146.06.242a2.085,2.085,0,0,1-.661.919,3.284,3.284,0,0,1-3.933-.1,3.159,3.159,0,0,1-.943-2.136,3.723,3.723,0,0,1,.633-2.6,2.7,2.7,0,0,1,2.633-1.075,2.486,2.486,0,0,1,2.245,1.839,5.588,5.588,0,0,1,.2,1.426c.014.25-.109.322-.324.321h-1.895Zm-.652-.941v.015c.4,0,.795,0,1.192,0s.456-.07.365-.47a1.246,1.246,0,0,0-.048-.14,1.477,1.477,0,0,0-1.657-.97,1.56,1.56,0,0,0-1.38,1.294c-.034.208.055.272.237.272Z" transform="translate(-3842.35 -2251.926)" fill="#f9f9fa"/><path d="M3010.192,2255.649a2.485,2.485,0,0,1-2.912.65,1.685,1.685,0,0,1-1.048-1.667,1.6,1.6,0,0,1,1.121-1.6,4.108,4.108,0,0,1,1.413-.261c.4-.019.8-.057,1.193-.071.23-.008.305-.115.335-.334a.9.9,0,0,0-.522-1.109,1.508,1.508,0,0,0-1.95.269c-.1.1-.169.258-.343.263a3.241,3.241,0,0,1-.842-.023c-.129-.03-.114-.141-.083-.243a1.816,1.816,0,0,1,.665-.967,3.386,3.386,0,0,1,3.409-.142,1.731,1.731,0,0,1,.837,1.237,4.862,4.862,0,0,1,.067.742q0,1.818-.017,3.636c0,.4-.013.4-.421.422l-.05,0c-.682.017-.681.017-.758-.654C3010.283,2255.768,3010.254,2255.743,3010.192,2255.649Zm.1-1.4c0-.6-.042-.65-.5-.631-.429.018-.858.055-1.286.1a1.825,1.825,0,0,0-.479.122.777.777,0,0,0-.542.753.845.845,0,0,0,.617.811,1.8,1.8,0,0,0,1.484-.163A1.267,1.267,0,0,0,3010.289,2254.248Z" transform="translate(-2927.441 -2247.628)" fill="#f9f9fa"/><path d="M2314.775,2249.928a3.423,3.423,0,0,1,.969-2.767,2.977,2.977,0,0,1,3.075-.548,2.678,2.678,0,0,1,1.818,2.233,4.2,4.2,0,0,1-.179,2.344,2.6,2.6,0,0,1-2.12,1.736,2.925,2.925,0,0,1-3.08-1.245A3.356,3.356,0,0,1,2314.775,2249.928Zm1.3-.164a2.407,2.407,0,0,0,.082.759,1.548,1.548,0,0,0,1.568,1.325,1.568,1.568,0,0,0,1.6-1.287,3.551,3.551,0,0,0,0-1.719,1.58,1.58,0,0,0-1.461-1.285,1.554,1.554,0,0,0-1.623,1.058A2.728,2.728,0,0,0,2316.076,2249.763Z" transform="translate(-2270.481 -2244.208)" fill="#f9f9fa"/><path d="M3371.452,2255.4a4.829,4.829,0,0,1-.077.842,2.818,2.818,0,0,1-3.588,2.327,2.644,2.644,0,0,1-2.173-2.192,4.351,4.351,0,0,1,.032-2.116,2.768,2.768,0,0,1,3.256-2.1A2.886,2.886,0,0,1,3371.452,2255.4Zm-4.641-.039a3.372,3.372,0,0,0,0,.447,4.332,4.332,0,0,0,.127.583,1.606,1.606,0,0,0,2.983.229,3.012,3.012,0,0,0-.026-2.553,1.427,1.427,0,0,0-1.311-.842,1.5,1.5,0,0,0-1.442.708A2.464,2.464,0,0,0,3366.812,2255.356Z" transform="translate(-3268.783 -2249.626)" fill="#f9f9fa"/><path d="M2866.72,2252.624a3.642,3.642,0,0,1-.547,2.006,2.508,2.508,0,0,1-1.6,1.093,3.435,3.435,0,0,1-1.48.026,2.708,2.708,0,0,1-2.243-2.357,4.157,4.157,0,0,1,.2-2.341,2.514,2.514,0,0,1,1.507-1.553,3.1,3.1,0,0,1,3.428.735A3.446,3.446,0,0,1,2866.72,2252.624Zm-1.3-.083a2.36,2.36,0,0,0-.191-1.2,1.563,1.563,0,0,0-1.346-.966,1.487,1.487,0,0,0-1.447.695,2.961,2.961,0,0,0-.008,2.98,1.778,1.778,0,0,0,1.537.779,1.464,1.464,0,0,0,1.245-1.014A2.527,2.527,0,0,0,2865.422,2252.541Z" transform="translate(-2789.232 -2246.923)" fill="#f9f9fa"/><path d="M2656.2,2249.375c.09-.107.191-.231.3-.351a2.241,2.241,0,0,1,3.463.44,2.331,2.331,0,0,1,.241.956q.011,1.993,0,3.985c0,.409-.023.423-.425.423-.923,0-.777.043-.785-.764-.009-.864-.007-1.727.009-2.591a5.993,5.993,0,0,0-.077-.94,1.085,1.085,0,0,0-.451-.746,1.482,1.482,0,0,0-2.321,1.012,8.365,8.365,0,0,0-.022.9c0,.9,0,1.794-.007,2.69,0,.4-.013.42-.378.411-1-.023-.88.157-.883-.864,0-1.577.02-3.155.033-4.732,0-.149.011-.3.015-.448a.2.2,0,0,1,.211-.221.377.377,0,0,1,.05,0c.264.01.561-.086.786.04.246.139.073.459.142.689C2656.1,2249.3,2656.1,2249.36,2656.2,2249.375Z" transform="translate(-2593.59 -2246.092)" fill="#f9f9fa"/><path d="M3519.028,2253.344a.146.146,0,0,0,.19-.087,2.265,2.265,0,0,1,2.9-.6,1.87,1.87,0,0,1,1.009,1.719c.033,1.36-.009,2.722-.013,4.083,0,.256-.129.357-.361.375-.1.008-.2.02-.3.021-.446,0-.507-.057-.507-.521,0-.929-.007-1.859.009-2.788a4.99,4.99,0,0,0-.111-1.036,1.135,1.135,0,0,0-1.069-.942,1.447,1.447,0,0,0-1.714,1.563c.044.994,0,1.992,0,2.987,0,.133-.011.266-.012.4,0,.211-.117.276-.315.292-.925.082-.968.048-.963-.884q.014-2.49.032-4.98c0-.405.008-.405.415-.425.751-.036.751-.036.787.72A.966.966,0,0,0,3519.028,2253.344Z" transform="translate(-3413.46 -2249.875)" fill="#f9f9fa"/><path d="M3723.068,2228.768c0-.565,0-1.13,0-1.694,0-.386-.009-.386-.372-.42-.609-.057-.653-.12-.592-.737.018-.179.083-.28.265-.292l.149-.009c.558-.037.556-.037.572-.576.007-.232.034-.464.036-.7,0-.214.114-.275.308-.3.794-.1.865-.048.869.722.005.839.005.836.845.86.171,0,.408-.079.475.156a1.333,1.333,0,0,1-.011.784c-.033.1-.169.088-.268.09-.249.006-.5.014-.747.012-.211,0-.3.1-.3.3,0,1-.026,1.994.016,2.989.029.679.266.862.934.908.391.027.391.027.392.419,0,.565-.045.619-.626.628a2.705,2.705,0,0,1-.986-.1,1.272,1.272,0,0,1-.953-1.305c-.01-.581,0-1.163,0-1.744Z" transform="translate(-3607.576 -2222.914)" fill="#f9f9fa"/><path d="M2803.059,2206.553q0,1.944,0,3.887c0,.448-.007.455-.437.457-.92,0-.769.03-.769-.725q0-3.713.021-7.426c0-.692.012-.6.594-.6.671,0,.617-.044.618.62q0,1.893,0,3.788Z" transform="translate(-2733.249 -2202.143)" fill="#f9f9fa"/></g></g></svg>