<svg xmlns="http://www.w3.org/2000/svg" xmlns:xlink="http://www.w3.org/1999/xlink" width="211" height="63" viewBox="0 0 211 63"><defs><linearGradient id="a" x1="0.08" x2="1" y2="0.92" gradientUnits="objectBoundingBox"><stop offset="0" stop-color="#e0b154"/><stop offset="0.204" stop-color="#c18829"/><stop offset="0.495" stop-color="#ebc55c"/><stop offset="0.73" stop-color="#ddae45"/><stop offset="1" stop-color="#be8122"/></linearGradient></defs><g transform="translate(-578 -1002)"><rect width="211" height="63" rx="31.5" transform="translate(578 1002)" fill="url(#a)"/><g transform="translate(-1061.044 139.739)"><g transform="translate(1715.057 891.509)"><path d="M355.008,418.215c0,.807-.024,1.615.011,2.42a.811.811,0,0,1-.519.891c-3.11,1.323-6.2,1.506-9.2-.288a5.31,5.31,0,0,1-2.239-2.869,9.807,9.807,0,0,1-.248-5.8c.857-3.414,3.942-5.449,7.808-5.249a10.438,10.438,0,0,1,3.533.74c.455.19.657.392.386.892-.228.422-.269,1.043-.6,1.285-.383.277-.851-.255-1.307-.364a8.957,8.957,0,0,0-2.79-.326,4.638,4.638,0,0,0-4.563,4.459,7.945,7.945,0,0,0,.109,2.566,4.5,4.5,0,0,0,4.811,3.858c2.394-.017,2.394-.017,2.393-2.326,0-1.037,0-1.037-1.074-1.036h-.807c-1.557,0-1.567-.026-1.4-1.625.034-.326.149-.407.443-.406,1.587.008,3.175.017,4.762,0,.4,0,.508.133.5.515C354.991,416.44,355.007,417.328,355.008,418.215Z" transform="translate(-304.927 -406.533)" fill="#fff"/><path d="M124.017,422.763a.825.825,0,0,1-.179.062c-2.353.145-2.353.144-3.179-2.075-.631-1.7-.632-1.67-2.4-1.757-1.236-.061-2.468-.043-3.7-.007a.64.64,0,0,0-.669.535c-.325.938-.694,1.862-1.007,2.8a.64.64,0,0,1-.75.519c-.669-.037-1.341-.01-2.108-.01l1.753-4.563c1.242-3.234,2.493-6.465,3.714-9.706a.77.77,0,0,1,.859-.6c2,.012,2.009-.007,2.732,1.868q2.388,6.2,4.763,12.4C123.913,422.409,123.961,422.588,124.017,422.763Zm-6.964-11.89c-.747,2.063-1.507,3.942-2.091,5.915h4.244Z" transform="translate(-110.026 -407.084)" fill="#fff"/><path d="M205.78,432.452a3.9,3.9,0,0,1,3.13-1.367,3.7,3.7,0,0,1,3.717,2.656,7.721,7.721,0,0,1-.149,5.517,4.8,4.8,0,0,1-6.15,2.972c-.557-.163-.682-.065-.664.494.035,1.1,0,2.2.017,3.305.006.365-.1.5-.485.55-2.024.29-2.022.3-2.022-1.723q0-5.926,0-11.853a2.686,2.686,0,0,0-.03-.881c-.288-.787.023-.994.752-.89a2.3,2.3,0,0,0,.322,0C205.473,431.235,205.473,431.235,205.78,432.452Zm4.651,3.865a7.236,7.236,0,0,0-.274-1.891,1.8,1.8,0,0,0-1.86-1.373,3.223,3.223,0,0,0-2.267.9,1.062,1.062,0,0,0-.364.846c.017,1.587.011,3.174,0,4.761a.619.619,0,0,0,.333.656,2.925,2.925,0,0,0,3.76-1.013A5.587,5.587,0,0,0,210.432,436.318Z" transform="translate(-188.007 -426.467)" fill="#fff"/><path d="M275.659,432.448a3.936,3.936,0,0,1,3.212-1.373,3.665,3.665,0,0,1,3.608,2.581,7.552,7.552,0,0,1-.179,5.737,4.755,4.755,0,0,1-6.081,2.826c-.522-.153-.7-.125-.672.474.044,1.1.007,2.2.019,3.307,0,.342-.07.507-.47.571-2.027.324-2.024.34-2.024-1.728q0-5.808,0-11.615a3.3,3.3,0,0,0-.038-1.043c-.335-.964.148-1.072.907-.961a1.119,1.119,0,0,0,.161,0C275.39,431.225,275.39,431.225,275.659,432.448Zm-.1,4.682c0,.807,0,1.614,0,2.421,0,.276.013.5.323.656a2.872,2.872,0,0,0,3.622-.813,5.751,5.751,0,0,0,.367-5.336c-.348-.916-1.289-1.2-2.484-.92a2.025,2.025,0,0,0-1.828,1.975Q275.563,436.122,275.563,437.131Z" transform="translate(-246.602 -426.458)" fill="#fff"/><path d="M687.968,431.747c.066-.033.087-.052.109-.053,2.564-.206,2.562-.206,3.359,2.21.572,1.733,1.143,3.467,1.733,5.194.061.18.037.43.33.571.672-2.158,1.335-4.295,2-6.43.495-1.579.5-1.578,2.126-1.576h1c-.232.633-.439,1.2-.649,1.77-1.328,3.595-2.643,7.195-3.991,10.782a4.562,4.562,0,0,1-6.11,2.715c-.247-.1-.362-.2-.287-.464.036-.129.044-.266.078-.4.1-.387.1-.885.348-1.125s.672.135,1.035.191a1.954,1.954,0,0,0,2.035-.836,2.615,2.615,0,0,0,.481-2.844c-1.212-2.951-2.242-5.977-3.344-8.973C688.129,432.239,688.05,431.989,687.968,431.747Z" transform="translate(-594.235 -426.908)" fill="#fff"/><path d="M438.03,440.112a4.717,4.717,0,0,1-5.258,1.269c-1.217-.432-1.818-1.564-1.783-3.131a3.057,3.057,0,0,1,1.924-2.96,8.061,8.061,0,0,1,4.429-.314c.523.074.76.049.719-.584a2.212,2.212,0,0,0-1.993-2.167,5.549,5.549,0,0,0-3.221.5c-.447.216-.575.086-.711-.329-.457-1.4-.473-1.405.971-1.812a9.671,9.671,0,0,1,4.07-.295,3.442,3.442,0,0,1,3.2,3.364c.1,1.364.035,2.739.058,4.109.017.993.059,1.986.085,2.98,0,.155.018.433-.03.446a5.563,5.563,0,0,1-2.145.057c-.412-.048-.161-.539-.244-.821C438.079,440.358,438.068,440.286,438.03,440.112Zm0-2.6c-.285-.313.465-1.073-.458-1.163a8.649,8.649,0,0,0-2.717.154,1.774,1.774,0,0,0-.508,3.147,2.632,2.632,0,0,0,2.65-.375C437.663,438.886,438.367,438.531,438.033,437.511Z" transform="translate(-379.121 -425.721)" fill="#fff"/><path d="M577.367,436.027c-1,0-1.991.019-2.986-.008-.448-.012-.543.148-.5.568a3.158,3.158,0,0,0,2.789,2.8,4.841,4.841,0,0,0,2.891-.528c.364-.205.466-.148.628.2.688,1.493.666,1.566-.924,2.018a8.511,8.511,0,0,1-4.072.179c-2.313-.474-3.61-2-3.941-4.677-.288-2.328.2-4.439,2.277-5.812a4.884,4.884,0,0,1,5.14-.339c1.689.872,2.2,2.463,2.2,4.269,0,1.329,0,1.33-1.322,1.332q-1.09,0-2.179,0Zm-1.11-1.525c.591,0,1.183-.026,1.772.008.467.027.614-.121.548-.592a2.344,2.344,0,0,0-2.215-2.159,2.279,2.279,0,0,0-2.336,2.1c-.077.479-.012.7.539.654S575.693,434.5,576.257,434.5Z" transform="translate(-496.656 -425.434)" fill="#fff"/><path d="M541.014,409.687c0-2.123.012-4.246-.009-6.369,0-.479.067-.7.633-.732,1.821-.1,1.82-.124,1.82,1.7q0,5.4,0,10.8c0,1.121.133,1.282,1.24,1.236.418-.017.523.115.5.476a2.235,2.235,0,0,1,0,.241c-.086.471.5,1.213-.458,1.33-.513.063-.918.432-1.578.157-1.852-.772-2.151-1.068-2.151-3.042Q541.014,412.589,541.014,409.687Z" transform="translate(-471.36 -402.544)" fill="#fff"/><path d="M503,409.67c0-2.15.016-4.3-.01-6.451-.006-.49.134-.631.625-.664,1.82-.121,1.819-.142,1.819,1.684q0,5.4,0,10.805c0,1.138.111,1.279,1.233,1.251.407-.01.484.108.517.478.134,1.5-.075,1.742-1.6,1.716A2.35,2.35,0,0,1,503,415.879C502.992,413.81,503,411.74,503,409.67Z" transform="translate(-439.485 -402.509)" fill="#fff"/><path d="M645.856,432.394a6.569,6.569,0,0,1,1.539-1.785,3.128,3.128,0,0,1,1.2-.448c1.023-.158,1.317.124,1.2,1.129a2.386,2.386,0,0,0-.046.481c.053.61-.2.8-.8.7a2.859,2.859,0,0,0-3.074,2.938c.136,1.791,0,3.6.01,5.4,0,.476-.114.63-.624.63-1.9,0-1.892.023-1.895-1.866,0-2.663.006-5.326-.028-7.989-.015-1.168-.057-1.167,1.114-1.167h.081c1.325,0,1.325,0,1.331,1.369C645.856,431.926,645.856,432.057,645.856,432.394Z" transform="translate(-557.146 -425.658)" fill="#fff"/></g><g transform="translate(1715.042 878.226)"><path d="M545.219,323.931c0,1.606-.022,3.212.012,4.817.011.531-.082.748-.682.743-.561,0-.651-.2-.646-.7q.028-3.146-.016-6.292c-.007-.485.113-.6.614-.644a1.7,1.7,0,0,1,1.883,1.065c.8,1.522,1.794,2.946,2.828,4.607,0-1.828.013-3.427-.008-5.024-.006-.441.026-.694.585-.66.483.029.782.031.768.669-.047,2.149-.041,4.3-.027,6.45,0,.42-.119.51-.533.557a1.563,1.563,0,0,1-1.721-.928c-.912-1.6-1.915-3.152-2.881-4.724Z" transform="translate(-473.761 -321.595)" fill="#fff"/><path d="M263.685,324.22a3.748,3.748,0,0,1-3.777,4.118A3.682,3.682,0,0,1,256,324.457a3.728,3.728,0,0,1,3.739-4.144A3.666,3.666,0,0,1,263.685,324.22Zm-6.3.1A2.625,2.625,0,0,0,259,327.03a2.249,2.249,0,0,0,2.516-.556,3.1,3.1,0,0,0,.652-3.081,2.3,2.3,0,0,0-2.126-1.88C258.441,321.4,257.39,322.513,257.386,324.323Z" transform="translate(-232.392 -320.311)" fill="#fff"/><path d="M496.065,324.366a3.839,3.839,0,1,1-7.672-.015,3.841,3.841,0,1,1,7.672.015Zm-1.389-.044c-.006-1.645-.9-2.74-2.282-2.8a2.382,2.382,0,0,0-2.573,2.153,2.9,2.9,0,0,0,1.576,3.361C493.168,327.647,494.683,326.394,494.676,324.322Z" transform="translate(-427.235 -320.317)" fill="#fff"/><path d="M317.743,328.987a1.5,1.5,0,0,1-2.038-.855c-.35-.689-.874-1.288-1.258-1.962-.212-.371-.506-.357-.818-.333-.44.035-.265.394-.273.626-.021.617-.038,1.237,0,1.853.027.5-.01.779-.652.783s-.739-.2-.728-.777c.038-2.095.028-4.191,0-6.286-.005-.455.063-.69.585-.678.831.02,1.667-.069,2.5-.021a2.237,2.237,0,0,1,1.019,4.16c-.39.235-.4.377-.152.712.338.449.621.939.928,1.411C317.14,328.068,317.433,328.513,317.743,328.987Zm-4.4-5.424a4.2,4.2,0,0,1-.005.641c-.1.615.164.831.754.734.184-.03.378,0,.558-.043a1.245,1.245,0,0,0,.981-1.439c-.134-.763-.727-1.095-1.812-1.043-.892.042-.294.724-.475,1.07C313.331,323.5,313.341,323.536,313.341,323.563Z" transform="translate(-279.322 -321.16)" fill="#fff"/><path d="M148.214,329.171a1.556,1.556,0,0,1-2.105-.961c-.317-.614-.748-1.169-1.171-1.814a27.614,27.614,0,0,0-1.55,2.433c-.383.759-1.017.462-1.532.466-.312,0-.053-.339.043-.488.651-1.019,1.293-2.047,1.99-3.034a.766.766,0,0,0-.021-1.046c-.688-.988-1.321-2.014-1.993-3.05a1.43,1.43,0,0,1,1.988.8,14.1,14.1,0,0,0,1.072,1.654,15.369,15.369,0,0,0,1.043-1.6,1.488,1.488,0,0,1,2.031-.857c-.627.97-1.229,1.962-1.9,2.907a.989.989,0,0,0-.023,1.345C146.837,326.97,147.5,328.075,148.214,329.171Z" transform="translate(-136.572 -321.352)" fill="#fff"/><path d="M353.944,325.435c0-1.074.013-2.149-.008-3.223-.008-.386.045-.579.511-.566,1.155.034,2.312.029,3.467,0,.493-.013.486.254.489.605,0,.369-.038.611-.516.582-.643-.04-1.291.02-1.934-.018-.467-.027-.649.069-.651.6-.006,1.354-.039,1.354,1.326,1.355.269,0,.539.017.806,0,.454-.034.731.008.727.615s-.333.549-.714.545c-.484-.005-.969.024-1.451-.009s-.707.069-.7.645c.008,1.613-.024,1.613,1.566,1.613.3,0,.593.021.887-.006.456-.042.669.063.672.6,0,.564-.265.594-.693.586-1.021-.017-2.043-.028-3.064.007-.535.018-.825-.111-.713-.7a.446.446,0,0,0,0-.08Q353.944,327.006,353.944,325.435Z" transform="translate(-314.493 -321.429)" fill="#fff"/><path d="M187.92,325.09c0-1.1.013-2.206-.008-3.309-.007-.371.091-.492.484-.525a13.942,13.942,0,0,1,2.577-.008,2.4,2.4,0,0,1,2.114,2.678,2.353,2.353,0,0,1-2.375,2.254c-1.452.029-1.452.029-1.453,1.483a5.021,5.021,0,0,0,0,.564c.058.51-.052.765-.671.761-.6,0-.7-.231-.68-.752C187.945,327.189,187.92,326.139,187.92,325.09Zm1.34-1.434c0,.348,0,.7,0,1.043,0,.19-.02.413.241.421a2.513,2.513,0,0,0,1.7-.308,1.469,1.469,0,0,0,.365-1.746,1.737,1.737,0,0,0-2.031-.747c-.589.21-.134.79-.272,1.178A.492.492,0,0,0,189.26,323.656Z" transform="translate(-175.308 -321.049)" fill="#fff"/><path d="M109.945,325.439c0-1.047.019-2.095-.008-3.141-.012-.454.054-.673.6-.649,1.1.048,2.2.035,3.3,0,.436-.012.557.137.536.548-.019.376-.006.671-.543.632-.668-.049-1.344.011-2.014-.02-.423-.019-.542.121-.551.543-.031,1.415-.049,1.414,1.357,1.415.269,0,.539.021.806,0,.469-.044.717.024.72.62,0,.623-.338.544-.713.536-.161,0-.322,0-.483,0-1.779,0-1.762,0-1.688,1.747.019.442.176.535.575.518.67-.029,1.344.02,2.014-.017.476-.026.529.22.515.588-.012.33.025.614-.49.6-1.154-.042-2.31-.029-3.465,0-.416.009-.482-.17-.477-.525C109.954,327.695,109.944,326.567,109.945,325.439Z" transform="translate(-109.935 -321.431)" fill="#fff"/><path d="M429.208,326.114c0-.887-.017-1.775.008-2.662.013-.461-.088-.708-.619-.637-.344.046-.7-.019-1.047.015-.495.048-.7-.072-.7-.64,0-.617.342-.539.718-.538,1.587,0,3.175.026,4.762,0,.505-.01.56.2.557.618,0,.388-.068.635-.525.56a.431.431,0,0,0-.081,0c-1.7.046-1.705.046-1.7,1.785,0,1.4-.025,2.8.016,4.194.017.6-.314.541-.708.55-.423.009-.717,0-.685-.578C429.244,327.891,429.208,327,429.208,326.114Z" transform="translate(-375.633 -321.431)" fill="#fff"/><path d="M226.944,325.5c0-1.1.034-2.206-.013-3.307-.028-.648.382-.488.731-.514.389-.029.651-.01.641.527-.034,1.774,0,3.55-.024,5.324-.008.514.114.724.669.679.641-.051,1.292.02,1.935-.017.427-.025.511.164.476.519-.029.3.114.665-.431.656-1.183-.021-2.367-.018-3.551,0-.376.006-.439-.153-.435-.482.016-1.129.006-2.259.006-3.388Z" transform="translate(-208.024 -321.45)" fill="#fff"/><path d="M412.742,325.509c0,1.073-.037,2.147.014,3.217.027.577-.263.587-.678.574-.379-.012-.728.075-.719-.541.033-2.2.038-4.4-.005-6.6-.013-.681.387-.533.772-.572.488-.049.65.111.63.62C412.714,323.309,412.743,324.41,412.742,325.509Z" transform="translate(-362.645 -321.378)" fill="#fff"/></g><g transform="translate(1670.044 876.261)"><path d="M-113.788,336.174c0,2.664-.017,5.328.007,7.991a10.309,10.309,0,0,1-.877,4.466,5.794,5.794,0,0,1-3.993,3.23,14.121,14.121,0,0,1-3.586.447c-5.2.013-10.391.027-15.586-.012a10.6,10.6,0,0,1-4.537-.941,6.016,6.016,0,0,1-3.255-4.331,20.8,20.8,0,0,1-.314-5.05q-.047-7.143-.005-14.287a8.916,8.916,0,0,1,.98-4.114,5.208,5.208,0,0,1,2.328-2.372,9.569,9.569,0,0,1,3.709-1c4.545-.254,9.093-.073,13.639-.109,1.522-.012,3.049.029,4.567.129a8.022,8.022,0,0,1,4.037,1.226,5.527,5.527,0,0,1,2.3,3.014,11.114,11.114,0,0,1,.592,3.319c-.013,2.8,0,5.6,0,8.395Zm-11.1,2.846a17.108,17.108,0,0,1-.762-2.185c-.086-.262-.141-.609-.545-.594-.355.013-.4.32-.484.563-.141.4-.226.831-.388,1.226-.122.3-.1.82-.437.823-.253,0-.243-.535-.366-.825a13.9,13.9,0,0,0-.438-1.436c-.161-.294-.352-.419-.632-.329-.359.114-.168.393-.1.6.342.988.7,1.97,1.044,2.958.093.269.188.521.521.52.352,0,.392-.3.488-.548a13.32,13.32,0,0,1,.841-2.143c.289.819.549,1.549.8,2.28.074.212.166.407.429.412a.444.444,0,0,0,.474-.346c.355-1.115.845-2.184,1.148-3.318.042-.159.15-.322-.06-.4a.452.452,0,0,0-.579.136,3.4,3.4,0,0,0-.226.6A10.771,10.771,0,0,1-124.89,339.02Zm-4.9-8.235a5.16,5.16,0,0,0,5.024-4.388c.042-.266.254-.672-.164-.75-.509-.095-.3.4-.344.636a4.592,4.592,0,0,1-5.571,3.817,4.53,4.53,0,0,1-3.549-3.92c-.036-.211.064-.57-.307-.549-.451.026-.2.4-.238.631a.966.966,0,0,0,.037.319A5.2,5.2,0,0,0-129.793,330.785Zm-8.975,7.576h.01c0-.536,0-1.073,0-1.609,0-.266-.046-.491-.371-.508-.34-.018-.388.209-.385.476s0,.536,0,.8c0,.2-.038.411-.272.423a8.006,8.006,0,0,1-1.363-.02.4.4,0,0,1-.38-.5,4.082,4.082,0,0,0,0-.883c-.014-.236-.188-.3-.4-.307-.225-.008-.374.1-.376.321q-.011,1.73,0,3.46c0,.27.173.361.431.349.231-.01.346-.11.346-.342s.02-.485,0-.724c-.05-.528.153-.7.7-.67,1.2.059,1.206.029,1.3,1.278a.578.578,0,0,1,0,.08c-.019.277.122.389.386.384s.38-.144.378-.406C-138.771,339.434-138.768,338.9-138.768,338.361Zm16.475-.061c0,.538.007,1.077,0,1.615-.006.3.123.448.427.447.754,0,1.508-.006,2.262-.01.249,0,.424-.084.4-.377-.024-.259-.208-.274-.409-.274-.458,0-.916-.006-1.373,0-.429,0-.534-.223-.528-.617s.15-.537.526-.517c.241.013.484-.01.727-.011s.307-.157.3-.372a.273.273,0,0,0-.288-.309c-.269-.009-.538-.013-.807,0-.363.013-.458-.184-.448-.506s.171-.42.461-.415c.431.008.862.007,1.292,0,.216,0,.441.013.459-.308.019-.342-.184-.406-.458-.406-.673,0-1.346.008-2.019,0-.379-.007-.535.155-.524.532C-122.282,337.277-122.294,337.788-122.292,338.3Zm-15.112-.522h.014c0,.43-.034.863.007,1.289a1.443,1.443,0,0,0,1.618,1.329c1.11,0,1.7-.413,1.778-1.329.064-.775.05-1.557.068-2.336.006-.261-.031-.494-.377-.49s-.359.247-.358.5c0,.618,0,1.237,0,1.855a1.062,1.062,0,0,1-.411.918.966.966,0,0,1-1.569-.761c-.042-.7-.013-1.4-.011-2.1,0-.26-.115-.413-.377-.418s-.382.148-.38.409C-137.4,337.025-137.4,337.4-137.4,337.778Zm8.227,2.313c-.543-1.217-1.048-2.428-1.627-3.6-.2-.4-.665-.342-.876.1-.539,1.132-1.029,2.286-1.547,3.428-.127.281.023.327.245.336a.458.458,0,0,0,.5-.319c.162-.551.545-.632,1.054-.608.632.029,1.316-.125,1.529.749.017.07.167.139.263.152C-129.432,340.357-129.193,340.406-129.177,340.09Zm11.794-1.795h.009c0-.534-.007-1.069,0-1.6.006-.3-.1-.447-.413-.45s-.343.191-.342.422c0,1.069.014,2.138.012,3.207,0,.288.1.476.406.472.355-.005.324-.283.325-.524C-117.382,339.311-117.383,338.8-117.383,338.3Z" transform="translate(145.956 -320.062)" fill="#fff"/><path d="M-57.893,428.879c-.2-.078-.519.135-.591-.227a2.418,2.418,0,0,1,.607-1.16,1.672,1.672,0,0,1,.55,1.106C-57.25,429.067-57.7,428.77-57.893,428.879Z" transform="translate(72.621 -410.129)" fill="#fff"/></g></g></g></svg>