<svg xmlns="http://www.w3.org/2000/svg" xmlns:xlink="http://www.w3.org/1999/xlink" width="211" height="63" viewBox="0 0 211 63"><defs><linearGradient id="a" x1="0.08" x2="1" y2="0.92" gradientUnits="objectBoundingBox"><stop offset="0" stop-color="#e0b154"/><stop offset="0.204" stop-color="#c18829"/><stop offset="0.495" stop-color="#ebc55c"/><stop offset="0.73" stop-color="#ddae45"/><stop offset="1" stop-color="#be8122"/></linearGradient></defs><g transform="translate(-464 -1002)"><rect width="211" height="63" rx="31.5" transform="translate(464 1002)" fill="url(#a)"/><g transform="translate(499 1017)"><path d="M2197.122,1313.943c1.032,0,2.065,0,3.1,0,.515,0,.539.005.589.512a7.165,7.165,0,0,1-1.385,5.326,6.907,6.907,0,0,1-4.615,2.644,8.4,8.4,0,0,1-5.073-.728,7.751,7.751,0,0,1-4.442-5.826,7.5,7.5,0,0,1,2.594-7.145,7.9,7.9,0,0,1,4.752-2.032,7.725,7.725,0,0,1,5.731,1.729c.089.073.176.148.256.229.26.26.265.267-.007.541-.336.336-.689.655-1.024.991-.177.178-.32.161-.5.005a5.787,5.787,0,0,0-9.374,3.237,5.577,5.577,0,0,0,2.408,5.954,5.874,5.874,0,0,0,7.074-.415,4.635,4.635,0,0,0,1.328-2.358c.115-.442.065-.489-.385-.495-1.311-.016-2.623-.014-3.934-.038-1.107-.02-.853.065-.889-.893-.012-.311.015-.623.008-.934-.006-.252.106-.355.351-.353.36,0,.721,0,1.082,0h2.36Z" transform="translate(-2147.089 -1293.996)" fill="#fff"/><path d="M2988.08,1428.638c.024-.048.05-.075.05-.1-.01-.722.122-.6.647-.6q.516,0,1.033.006c.49.009.5.012.5.487q0,1.7-.011,3.392c-.009,1.753-.006,3.507-.035,5.26a6.428,6.428,0,0,1-.638,2.947,4.258,4.258,0,0,1-3.491,2.308,5.453,5.453,0,0,1-2.378-.2,4.893,4.893,0,0,1-2.8-2.334c-.246-.431-.226-.463.253-.666.347-.147.7-.287,1.045-.427.415-.167.416-.166.651.209a2.872,2.872,0,0,0,2.218,1.445,2.569,2.569,0,0,0,2.813-1.8,3.573,3.573,0,0,0,.094-1.738c-.143-.056-.205.072-.287.136a3.953,3.953,0,0,1-4.22.461,4.865,4.865,0,0,1-3.1-3.947,5.054,5.054,0,0,1,4.736-5.865,3.925,3.925,0,0,1,2.654.856A.5.5,0,0,0,2988.08,1428.638Zm-5.435,3.752a3.282,3.282,0,0,0,.987,2.68,2.7,2.7,0,0,0,3.7-.008,3.388,3.388,0,0,0,.429-4.234,2.633,2.633,0,0,0-3.414-.954A2.858,2.858,0,0,0,2982.644,1432.39Z" transform="translate(-2903.137 -1408.989)" fill="#fff"/><path d="M3577.327,1334.429q0-3.073,0-6.146c0-.344.041-.688.034-1.031-.005-.261.1-.34.349-.337,1.066.014,2.132,0,3.2.02a16.208,16.208,0,0,1,2.651.085,4.671,4.671,0,0,1,3.985,3.212,4.444,4.444,0,0,1-2.353,5.488,5.362,5.362,0,0,1-2.469.559q-1.328-.012-2.656-.012c-.487,0-.493.007-.5.489q-.016,2.237-.024,4.474c0,.082,0,.164,0,.246-.013.48-.013.484-.5.484s-.951-.012-1.426-.006c-.247,0-.357-.087-.349-.345.012-.393-.006-.787,0-1.18,0-1,.015-2,.018-3s0-2,0-3Zm2.292-2.787h-.033c0,.7,0,1.408,0,2.111,0,.421.007.427.443.431.867.008,1.735.009,2.6.014a3.655,3.655,0,0,0,.733-.061,2.557,2.557,0,0,0-.356-5.076c-1-.035-2-.023-3-.021-.365,0-.385.016-.391.394C3579.611,1330.169,3579.62,1330.9,3579.62,1331.641Z" transform="translate(-3470.662 -1313.249)" fill="#fff"/><path d="M3894.29,1441.445a4.031,4.031,0,0,1-5.63.424,3.041,3.041,0,0,1,.386-4.911,5.376,5.376,0,0,1,4.769-.478,1.2,1.2,0,0,0,.489.145,1.1,1.1,0,0,0-.264-1.034,2.472,2.472,0,0,0-2.163-.939,2.158,2.158,0,0,0-1.839.864.307.307,0,0,1-.429.093q-.72-.314-1.448-.612c-.2-.083-.224-.2-.126-.382a3.318,3.318,0,0,1,1.165-1.24,5.153,5.153,0,0,1,3.539-.709,4.46,4.46,0,0,1,2.859,1.378,3.545,3.545,0,0,1,.956,2.41c.021,1.819-.005,3.638-.013,5.457,0,.016,0,.033,0,.049-.009.593-.009.593-.6.59q-.516,0-1.033-.007c-.549-.005-.549-.006-.581-.575C3894.313,1441.826,3894.3,1441.683,3894.29,1441.445Zm-1.877-3.471c-.065,0-.13,0-.2,0a3.1,3.1,0,0,0-1.766.493,1.2,1.2,0,0,0,.167,2.141,2.632,2.632,0,0,0,1.487.177,2.76,2.76,0,0,0,2.2-1.987.334.334,0,0,0-.228-.451A4.028,4.028,0,0,0,3892.413,1437.974Z" transform="translate(-3765.72 -1413.745)" fill="#fff"/><path d="M2760.1,1430.709a5.045,5.045,0,0,1-5.229,5.04,5.1,5.1,0,1,1,5.229-5.04Zm-2.286-.127c-.007-.095-.008-.243-.027-.389a2.835,2.835,0,0,0-1.729-2.385,2.756,2.756,0,0,0-2.957.4,3.27,3.27,0,0,0-.174,4.758,2.8,2.8,0,0,0,2.154.767A3,3,0,0,0,2757.814,1430.582Z" transform="translate(-2683.831 -1407.025)" fill="#fff"/><path d="M2524.268,1434.02a5.133,5.133,0,0,1-5.054-3.875,5.045,5.045,0,0,1,3.845-6.191,5.191,5.191,0,0,1,4.728,1.164,5.125,5.125,0,0,1-.63,8.083A5.109,5.109,0,0,1,2524.268,1434.02Zm2.939-5.183c0-.059,0-.191-.016-.321a2.91,2.91,0,0,0-4.375-2.276,3.2,3.2,0,0,0-1.167,4.092,2.949,2.949,0,0,0,2.827,1.667A2.988,2.988,0,0,0,2527.207,1428.836Z" transform="translate(-2464.547 -1405.379)" fill="#fff"/><path d="M3282.626,1434.293a4.946,4.946,0,0,1,2.076-4.184,4.658,4.658,0,0,1,6.621,1.2,5.84,5.84,0,0,1,.685,1.354c.139.405.138.413-.259.574-1.136.463-2.275.92-3.412,1.383q-1.342.546-2.679,1.1c-.385.161-.4.211-.161.561a2.6,2.6,0,0,0,2.413,1.141,2.85,2.85,0,0,0,2.166-1.1c.173-.21.3-.245.518-.085.358.258.741.482,1.1.734.337.233.348.3.079.615a4.781,4.781,0,0,1-2.6,1.675,5.218,5.218,0,0,1-4.946-1.168A4.857,4.857,0,0,1,3282.626,1434.293Zm5.08-3.073a2.8,2.8,0,0,0-2.781,2.485c-.03.375.014.42.36.286.836-.326,1.666-.666,2.5-1,.484-.195.971-.383,1.451-.589.269-.116.274-.16.106-.388A2.071,2.071,0,0,0,3287.705,1431.22Z" transform="translate(-3190.527 -1410.527)" fill="#fff"/><path d="M4075.254,1439.7a20.281,20.281,0,0,1,2.16-.011c.2,0,.272.158.336.31q.448,1.063.888,2.129.79,1.9,1.578,3.81a1.575,1.575,0,0,0,.113.185.942.942,0,0,0,.3-.495q1.117-2.7,2.228-5.4c.214-.519.216-.518.782-.519h1.869a1.625,1.625,0,0,1-.2.667q-2.918,6.495-5.833,12.99c-.161.36-.342.545-.763.5-.471-.045-.95-.009-1.424-.028-.322-.013-.355-.061-.234-.351.214-.513.448-1.018.681-1.523.417-.906.831-1.815,1.267-2.712a.966.966,0,0,0,.022-.887c-.6-1.328-1.181-2.662-1.765-4q-.955-2.181-1.9-4.365C4075.323,1439.935,4075.3,1439.855,4075.254,1439.7Z" transform="translate(-3944.144 -1420.452)" fill="#fff"/><path d="M3815.661,1336.069c0-2.294-.009-4.588.006-6.882,0-.638-.108-.6.617-.606.377,0,.754,0,1.131.005.518.006.521.007.519.506q-.01,2.187-.023,4.375-.026,4.719-.052,9.439c0,.832.022.709-.716.714-.361,0-.722,0-1.082-.01-.463-.009-.473-.012-.476-.462-.006-.9,0-1.8,0-2.7q0-2.187,0-4.375Z" transform="translate(-3697.254 -1314.834)" fill="#fff"/><path d="M3213.7,1332.118c0-1.36-.006-2.72,0-4.081.006-1.016.026-2.031.046-3.047.007-.344.017-.354.358-.357.524-.005,1.049.015,1.573.005.24,0,.324.1.323.321,0,.426,0,.852,0,1.278q-.04,6.17-.082,12.34c0,.262-.018.524-.021.786,0,.2-.084.3-.3.3-.557-.009-1.115-.015-1.672-.015-.214,0-.285-.1-.283-.3,0-.541,0-1.081,0-1.622q0-2.8,0-5.6Z" transform="translate(-3124.942 -1311.079)" fill="#fff"/><path d="M3046.018,1072.312c.02-.369.043-.623.046-.877.014-1.343.019-2.687.039-4.03,0-.162-.1-.4.13-.474a1.1,1.1,0,0,1,.725.021c.135.052.113.224.113.353q0,.934-.01,1.868-.021,2.236-.046,4.472c-.006.481-.011.454-.5.485a.773.773,0,0,1-.785-.444c-.991-1.62-2-3.229-3-4.842a1.157,1.157,0,0,0-.326-.409,1.458,1.458,0,0,0-.088.534c-.008,1.556-.013,3.112-.026,4.668,0,.148.085.366-.133.421a1.178,1.178,0,0,1-.726-.031c-.119-.048-.082-.2-.082-.313,0-.655,0-1.311,0-1.966q.016-2.212.04-4.423c.005-.459.015-.459.473-.468a1.08,1.08,0,0,0,.147,0,.789.789,0,0,1,.861.479c.906,1.5,1.833,2.986,2.757,4.475C3045.721,1071.956,3045.841,1072.084,3046.018,1072.312Z" transform="translate(-2961.122 -1065.98)" fill="#fff"/><path d="M2201.181,1061.177c.459,0,.918-.01,1.376,0,.422.012.448.05.463.452a3.316,3.316,0,0,1-2.745,3.49,3.806,3.806,0,0,1-3.265-6.671,3.9,3.9,0,0,1,4.5-.179c.04.028.083.052.123.082.479.355.474.49.01.879a.262.262,0,0,1-.417-.01,2.836,2.836,0,0,0-4.544,2.958,2.618,2.618,0,0,0,2.116,2.022,2.731,2.731,0,0,0,2.483-.6,1.941,1.941,0,0,0,.669-1.115c.071-.331.043-.38-.289-.394-.54-.022-1.08-.027-1.62-.039-.115,0-.23-.009-.344,0-.2.01-.315-.059-.3-.279.006-.081,0-.164,0-.245.009-.34.028-.367.358-.373.475-.008.95,0,1.425,0Z" transform="translate(-2156.995 -1057.232)" fill="#fff"/><path d="M2866.219,1062.936a3.781,3.781,0,1,1-3.792,3.734A3.659,3.659,0,0,1,2866.219,1062.936Zm-.021,6.638a2.735,2.735,0,0,0,2.8-2.818,2.786,2.786,0,1,0-5.568-.067A2.742,2.742,0,0,0,2866.2,1069.574Z" transform="translate(-2791.01 -1062.261)" fill="#fff"/><path d="M2372.312,1065.76c0-1.048-.006-2.1,0-3.145,0-.48.018-.494.5-.492,1.147,0,2.294.019,3.44.037.346.005.353.024.361.367.013.522.01.529-.5.528-.77,0-1.54-.011-2.31-.013-.476,0-.481,0-.492.493q-.015.662-.01,1.326c0,.417.01.423.455.431.672.012,1.344.009,2.015.024.152,0,.361-.078.444.1a1.045,1.045,0,0,1-.009.675c-.034.142-.19.1-.3.1-.557,0-1.115-.02-1.671,0-.3.009-.677-.145-.89.095-.187.211-.056.567-.068.858-.013.327,0,.655-.009.982-.008.21.073.3.282.3.639,0,1.278.018,1.917.028.279,0,.557.01.836.006.164,0,.243.07.245.23,0,.1,0,.2,0,.295-.015.366-.015.374-.4.374q-1.7,0-3.392-.013c-.489,0-.5-.012-.5-.49,0-1.032,0-2.064,0-3.1Z" transform="translate(-2324.979 -1061.491)" fill="#fff"/><path d="M2701.655,1068.9c0,.916,0,1.832,0,2.748,0,.354-.015.354-.358.366h-.1c-.539,0-.546,0-.542-.542.014-1.7.041-3.4.048-5.1,0-.674.083-.67-.664-.672-.327,0-.655,0-.982-.008-.362-.009-.363-.015-.375-.351-.02-.538-.013-.55.526-.548q1.989.005,3.977.019c.562,0,.621.083.557.624-.023.2-.093.286-.3.28-.425-.012-.851-.009-1.276,0s-.446.016-.448.44c0,.916,0,1.832,0,2.749Z" transform="translate(-2635.319 -1064.024)" fill="#fff"/><path d="M2482.168,1067c0-.916,0-1.833,0-2.749,0-.379-.009-.386-.377-.4-.426-.014-.851-.022-1.277-.013-.247.005-.372-.074-.344-.335a1.552,1.552,0,0,0,0-.245c-.013-.222.071-.325.311-.322,1.457.016,2.914.018,4.37.036.363,0,.364.026.367.413,0,.483,0,.489-.488.492-.376,0-.753-.008-1.129,0s-.388.015-.4.387c-.022.949-.033,1.9-.045,2.847-.011.9-.013,1.8-.027,2.7-.005.343-.016.346-.366.362a2.223,2.223,0,0,1-.245,0c-.332-.022-.363-.042-.365-.374-.007-.933,0-1.865,0-2.8Z" transform="translate(-2427.562 -1062.261)" fill="#fff"/><path d="M2655.5,1067.736c0,1.079,0,2.158,0,3.237,0,.37-.015.37-.386.378-.593.012-.6.012-.6-.577q.012-2.992.035-5.984c0-.147.01-.294.016-.441,0-.082.007-.186.1-.2a1.873,1.873,0,0,1,.779,0c.089.02.095.125.1.206.008.245.013.49.013.735q0,1.324,0,2.648Z" transform="translate(-2593.326 -1063.375)" fill="#fff"/><path d="M26.863,13.59,4.583.418A3.021,3.021,0,0,0,0,3.032V29.369a3.035,3.035,0,0,0,4.583,2.614l22.28-13.165a3.035,3.035,0,0,0,0-5.228Z" transform="translate(0 -0.002)" fill="#fff"/></g></g></svg>