<svg xmlns="http://www.w3.org/2000/svg" xmlns:xlink="http://www.w3.org/1999/xlink" width="263" height="263" viewBox="0 0 263 263"><defs><linearGradient id="a" x2="1" y2="1" gradientUnits="objectBoundingBox"><stop offset="0" stop-color="#e0b154"/><stop offset="0.204" stop-color="#c18829"/><stop offset="0.495" stop-color="#ebc55c"/><stop offset="0.73" stop-color="#ddae45"/><stop offset="1" stop-color="#be8122"/></linearGradient><clipPath id="h"><rect width="263" height="263"/></clipPath></defs><g id="g" clip-path="url(#h)"><rect width="263" height="263" fill="#2b2b2b"/><g transform="translate(-110.714 -258.712)"><g transform="translate(123.714 328.712)"><g transform="translate(0 84.181)"><path d="M140.735,474.837v7H146.7v4.444a6.361,6.361,0,0,1-2.069.725,14.48,14.48,0,0,1-2.675.226,13.683,13.683,0,0,1-4.631-.752,10.183,10.183,0,0,1-3.613-2.2,10.06,10.06,0,0,1-2.375-3.526,12.376,12.376,0,0,1-.845-4.67,16.23,16.23,0,0,1,.752-5.176,9.57,9.57,0,0,1,2.229-3.719,9.353,9.353,0,0,1,3.646-2.249,15.166,15.166,0,0,1,4.977-.752,12.261,12.261,0,0,1,2.581.326,25.187,25.187,0,0,1,2.868.825,13.343,13.343,0,0,1,2.255,1l2.209-6.746a19.433,19.433,0,0,0-4.7-1.923,22.837,22.837,0,0,0-6.108-.772,19.149,19.149,0,0,0-6.74,1.2,15.683,15.683,0,0,0-5.689,3.672,17.628,17.628,0,0,0-3.9,6.194,24.484,24.484,0,0,0-1.43,8.776,19.339,19.339,0,0,0,1.271,7.092,15.974,15.974,0,0,0,3.659,5.622,16.817,16.817,0,0,0,5.782,3.7,20.684,20.684,0,0,0,7.611,1.324,16.717,16.717,0,0,0,3.38-.373,28.669,28.669,0,0,0,3.5-.978,19.309,19.309,0,0,0,3.027-1.324,7.054,7.054,0,0,0,1.929-1.424V474.837Z" transform="translate(-123.45 -455.796)" fill="#fff"/><path d="M187.243,487.28v-7.944h14.843v-6.992H187.243v-7.851h16.766V457.5H180.43v36.779h24.238v-7Z" transform="translate(-142.52 -455.996)" fill="#fff"/><path d="M234.263,487.28v-7.944h14.843v-6.992H234.263v-7.851h16.773V457.5H227.45v36.779h24.238v-7Z" transform="translate(-158.257 -455.996)" fill="#fff"/><path d="M270.94,457.5v6.992h8.084v29.787h6.813V464.492h8.4V457.5Z" transform="translate(-172.812 -455.996)" fill="#fff"/><path d="M336.132,484.531a10.691,10.691,0,0,1-3.007,2,10.848,10.848,0,0,1-4.744.945,10.454,10.454,0,0,1-4.3-.845,9.318,9.318,0,0,1-3.267-2.428,10.919,10.919,0,0,1-2.089-3.773,15.319,15.319,0,0,1-.725-4.843,13.033,13.033,0,0,1,.8-4.624,12.2,12.2,0,0,1,2.182-3.726,9.882,9.882,0,0,1,3.194-2.468,8.559,8.559,0,0,1,3.786-.878,9.543,9.543,0,0,1,4.484,1.025,19.809,19.809,0,0,1,3.127,1.976l2.675-6.846a20.564,20.564,0,0,0-4.371-2.149,17.53,17.53,0,0,0-6.154-1,16.475,16.475,0,0,0-6.853,1.4,15.479,15.479,0,0,0-5.336,3.945,17.967,17.967,0,0,0-3.426,6.048,23.647,23.647,0,0,0-1.2,7.7,20.988,20.988,0,0,0,1.171,7.046,17.972,17.972,0,0,0,3.406,5.848,16.011,16.011,0,0,0,5.449,4.018,18.451,18.451,0,0,0,7.305,1.577,16.193,16.193,0,0,0,4.883-.6,17.97,17.97,0,0,0,3.739-1.5,13.23,13.23,0,0,0,2.089-1.344Z" transform="translate(-186.189 -455.796)" fill="#fff"/><path d="M394.058,468.543a19.411,19.411,0,0,0-3.852-6.021,18.475,18.475,0,0,0-5.662-4.125,16.343,16.343,0,0,0-13.666,0,17.9,17.9,0,0,0-5.615,4.125,19.448,19.448,0,0,0-3.779,6.021,19.071,19.071,0,0,0-1.364,7.192,19.371,19.371,0,0,0,1.364,7.3A18.821,18.821,0,0,0,365.263,489a17.591,17.591,0,0,0,5.615,4.025,16.82,16.82,0,0,0,13.666,0A18.159,18.159,0,0,0,390.206,489a18.789,18.789,0,0,0,3.852-5.968,19.13,19.13,0,0,0,1.384-7.3A18.835,18.835,0,0,0,394.058,468.543Zm-6.46,11.77a12.2,12.2,0,0,1-2.209,3.746,9.987,9.987,0,0,1-3.307,2.522,9.526,9.526,0,0,1-4.112.9,10.023,10.023,0,0,1-4.251-.9,10.575,10.575,0,0,1-3.426-2.522,11.808,11.808,0,0,1-2.3-3.746,12.487,12.487,0,0,1-.825-4.578,13.224,13.224,0,0,1,.8-4.644,11.649,11.649,0,0,1,2.256-3.772,10.505,10.505,0,0,1,3.38-2.528,10.18,10.18,0,0,1,8.363,0,10.288,10.288,0,0,1,3.36,2.528,12.4,12.4,0,0,1,2.255,3.772,13.555,13.555,0,0,1,.02,9.221Z" transform="translate(-202.659 -455.796)" fill="#fff"/><path d="M458.965,455.24l-17.93,26.46L423.5,455.24h-.047v38.283h6.58v-16.46l10.852,15.961h.093l11.27-17.045v17.544h6.813V455.24Z" transform="translate(-223.854 -455.24)" fill="#fff"/></g><g transform="translate(0.226)"><rect width="6.427" height="6.347" transform="translate(101.44 30.031)" fill="url(#a)"/><rect width="6.428" height="6.347" transform="translate(91.695 30.031)" fill="url(#a)"/><rect width="6.427" height="6.403" transform="translate(133.246 68.335)" fill="url(#a)"/><rect width="6.428" height="6.403" transform="translate(123.501 68.335)" fill="url(#a)"/><rect width="6.479" height="6.403" transform="translate(163.68 68.335)" fill="url(#a)"/><path d="M169.251,376.281l-.067.066h13.067a9.465,9.465,0,0,1,7.152,3.147,12.827,12.827,0,0,1,3.313,7.4h-26.46c-.8-7.092-5.782-12.368-12.787-12.368H137.216c-8.529,0-13.426,6.494-13.426,16.3v21.763h6.454V392.236c0-6.68,2.768-10.725,7.086-10.725h4.73a15.232,15.232,0,0,0-1.617,7.232c0,7.971,5.362,14.285,13.027,14.285a12.456,12.456,0,0,0,12.036-8.742H308V391.75c0-14.4-6.167-23.013-18.037-23.073a16.67,16.67,0,0,0-12.861,5.855c1.716,2.482,2.907,4.192,3.633,5.243a12.725,12.725,0,0,1,8.709-3.972c6.061,0,10.519,4.85,10.832,11.091H263.361a17.321,17.321,0,0,0,.825-5.575V369.289h-7.305v12.3c0,3.533-1.191,5.3-3.626,5.3H231.346a17.31,17.31,0,0,0,.878-5.575V369.289h-7.305v12.3c0,3.533-1.244,5.3-3.679,5.3h-20.9c-.778-7.4-3.473-12.528-8.09-15.455a15.713,15.713,0,0,0-6.74-2.209h-3.885S197.341,358.4,209,353.907c1.1-.392,2.189-.772,3.273-1.124.293-.08.585-.166.865-.24,2.069-.532,2.868-.8,2.808-.885,58.814-16.919,101.049,22.96,105.54,27.418a24.179,24.179,0,0,1,7.126-6.414,149.872,149.872,0,0,0-12.368-9.86l3.56-5.336a162.587,162.587,0,0,1,15.715,12.442,24.671,24.671,0,0,1,5.516-.619,24.4,24.4,0,0,1,7.392,1.138C253.055,273.782,170.13,375.2,169.251,376.281Zm-15.608,20.432c-3.865,0-6.573-3.553-6.573-8.03,0-4.411,2.249-7.844,6.167-7.844,3.979,0,6.514,3.493,6.514,8.09C159.751,393.467,157.269,396.713,153.643,396.713Zm24.9-26.753h-.073l-.692-1.031c.3-.286.672-.625,1.1-1.025l.759,1.124C178.919,369.628,178.546,369.961,178.546,369.961Zm2.162-1.79-.805-1.178c.293-.253.6-.526.925-.805l.892,1.2C181.347,367.665,181.014,367.931,180.708,368.171Zm2.089-1.61-.931-1.257c.379-.319.785-.659,1.211-1l.978,1.337C183.616,365.956,183.2,366.268,182.8,366.561Zm2.369-1.717-1.031-1.4q.728-.579,1.517-1.2l1.018,1.544C186.144,364.153,185.638,364.505,185.166,364.844Zm2.907-2L187,361.212c.5-.373,1.011-.758,1.544-1.151l1.078,1.756C189.091,362.163,188.572,362.509,188.073,362.842Zm2.981-1.93-1.131-1.843c.532-.379,1.071-.758,1.63-1.144l1.171,1.949C192.152,360.227,191.593,360.566,191.054,360.912Zm3.12-1.909-1.217-2.029c.506-.346,1.031-.692,1.563-1.038l1.164,2.189C195.172,358.418,194.667,358.717,194.174,359Zm2.987-1.71-1.218-2.275c.645-.406,1.3-.812,1.963-1.224l1.237,2.415C198.466,356.568,197.807,356.934,197.162,357.293Zm3.48-1.876-1.277-2.495q1.487-.888,3.06-1.763l1.284,2.715C202.657,354.386,201.633,354.9,200.641,355.417Zm4.6-2.275-1.331-2.8q1.856-1.008,3.826-1.989l1.224,3.107Q207.042,352.287,205.239,353.142Zm5.795-2.568-1.264-3.214q2.136-1.028,4.391-2l1.184,3.52Q213.139,349.7,211.034,350.573Zm7.159-2.708-1.238-3.666q2.285-.918,4.677-1.763l1.317,3.905C221.326,346.821,219.743,347.333,218.192,347.865Zm7.664-2.349-1.364-4.045q2.794-.908,5.715-1.69l1.1,4.4Q228.528,344.788,225.857,345.517Zm8.41-1.936-1.138-4.531c2.615-.619,5.3-1.151,8.044-1.577l.512,4.963Q237.893,342.885,234.267,343.581Zm18.044-1.85c-2.588.033-5.143.173-7.645.4l-.519-5.076c2.661-.339,5.389-.579,8.163-.7Zm13.939.772a99.351,99.351,0,0,0-10.545-.765v-5.476a97.99,97.99,0,0,1,11.317.546Zm15.229,3.147a101.784,101.784,0,0,0-11.869-2.668l.778-5.762a100.79,100.79,0,0,1,12.867,2.681Zm15.562,5.875a106.764,106.764,0,0,0-11.59-4.637l1.79-5.8s8.3,2.927,12.528,4.87Zm15.382,8.656a122.35,122.35,0,0,0-11.563-6.78l2.748-5.6a129.513,129.513,0,0,1,12.355,7.092Z" transform="translate(-123.79 -328.713)" fill="url(#a)"/></g><g transform="translate(53.205 41.182)"><path d="M203.44,390.611l-.021.021h.035Z" transform="translate(-203.419 -390.611)" fill="#fefcfd"/></g><path d="M18.742,51.618a1.534,1.534,0,0,1-1.291-.729L2.036,26.9h.086A17.913,17.913,0,0,1,0,18.409,18.143,18.143,0,0,1,5.479,5.392a18.928,18.928,0,0,1,26.461,0A18.138,18.138,0,0,1,35.3,26.9h.146L20.032,50.889A1.534,1.534,0,0,1,18.742,51.618Zm-.03-43.757c-5.683,0-10.306,4.918-10.306,10.963s4.623,10.964,10.306,10.964,10.306-4.918,10.306-10.964S24.394,7.861,18.712,7.861Z" transform="translate(198.758 46.751)" fill="#fff" stroke="rgba(0,0,0,0)" stroke-miterlimit="10" stroke-width="1"/></g></g></g></svg>