<svg xmlns="http://www.w3.org/2000/svg" width="58" height="58" viewBox="0 0 58 58"><g transform="translate(-475 -1451)"><circle cx="29" cy="29" r="29" transform="translate(475 1451)" fill="#ffebea"/><g transform="translate(497.386 1470.141)"><path d="M150.121-47.25c.453.3.906.6,1.362.889a.278.278,0,0,0,.164.009c.465-.055.929-.11,1.393-.173a.213.213,0,0,1,.242.124q.354.6.727,1.181a.45.45,0,0,0,.21.168q.659.24,1.326.456a.194.194,0,0,1,.16.2q.064.72.152,1.437a.388.388,0,0,0,.11.205q.494.5,1,.987a.2.2,0,0,1,.055.247c-.162.433-.321.866-.468,1.3a.512.512,0,0,0,0,.3c.147.438.306.872.468,1.3a.2.2,0,0,1-.054.246q-.507.487-1,.99a.45.45,0,0,0-.116.242c-.059.472-.1.946-.16,1.417a.268.268,0,0,1-.152.174c-.439.161-.885.3-1.324.462a.449.449,0,0,0-.211.167q-.369.575-.718,1.164a.225.225,0,0,1-.267.136c-.45-.068-.9-.119-1.356-.161a.519.519,0,0,0-.3.073c-.394.24-.783.491-1.168.745a.185.185,0,0,1-.237,0c-.386-.253-.774-.5-1.169-.745a.518.518,0,0,0-.3-.071q-.689.065-1.375.163a.2.2,0,0,1-.238-.122c-.231-.386-.463-.771-.709-1.147a.582.582,0,0,0-.264-.216c-.42-.157-.846-.3-1.274-.434a.23.23,0,0,1-.182-.242c-.04-.467-.092-.933-.15-1.4a.391.391,0,0,0-.112-.205q-.494-.5-1-.989a.2.2,0,0,1-.055-.246c.165-.438.325-.879.476-1.322a.448.448,0,0,0,0-.269c-.151-.443-.311-.883-.476-1.322a.2.2,0,0,1,.055-.247c.33-.315.657-.633.974-.961a.547.547,0,0,0,.141-.289c.061-.465.109-.932.15-1.4.01-.115.071-.144.161-.175.431-.145.863-.288,1.289-.447a.582.582,0,0,0,.264-.213c.243-.37.475-.749.7-1.131a.238.238,0,0,1,.272-.139c.445.06.89.117,1.337.162a.511.511,0,0,0,.3-.06c.411-.25.813-.513,1.218-.774a.255.255,0,0,0,.047-.054Zm-4.951,7.18a4.917,4.917,0,0,0,4.911,4.924A4.916,4.916,0,0,0,155-40.066,4.925,4.925,0,0,0,150.085-45,4.927,4.927,0,0,0,145.171-40.07Z" transform="translate(-143.119 47.25)" fill="#db120d"/><path d="M154.033,216.355c-.7-.568-1.4-1.139-2.114-1.7a.442.442,0,0,0-.269-.037c-.777.041-1.554.088-2.331.133-.069,0-.138,0-.239,0l1.542-4.832a.623.623,0,0,1,.5.315c.265.468.561.918.839,1.379a.205.205,0,0,0,.24.118q.836-.115,1.676-.2a.55.55,0,0,1,.316.073c.337.2.66.424,1,.627a.192.192,0,0,1,.1.271c-.4,1.216-.783,2.434-1.171,3.651-.021.065-.029.134-.043.2Z" transform="translate(-148.779 -196.872)" fill="#db120d"/><path d="M290.2,216.331c-.146-.477-.288-.955-.438-1.43-.255-.809-.512-1.617-.777-2.422a.192.192,0,0,1,.1-.271q.487-.295.959-.613a.532.532,0,0,1,.391-.093c.545.071,1.092.13,1.637.207a.2.2,0,0,0,.24-.118c.277-.461.574-.911.839-1.379a.645.645,0,0,1,.5-.316l1.545,4.838c-.349-.017-.674-.032-1-.05-.55-.031-1.1-.065-1.649-.092a.311.311,0,0,0-.194.04c-.707.564-1.409,1.133-2.113,1.7Z" transform="translate(-281.567 -196.848)" fill="#db120d"/><path d="M213.572,23.484a3.772,3.772,0,1,1-3.778-3.788A3.773,3.773,0,0,1,213.572,23.484Z" transform="translate(-202.836 -16.299)" fill="#db120d"/></g></g></svg>