<svg xmlns="http://www.w3.org/2000/svg" width="58" height="58" viewBox="0 0 58 58"><g transform="translate(-777 -1565)"><circle cx="29" cy="29" r="29" transform="translate(777 1565)" fill="#ffebea"/><g transform="translate(772.865 1698)"><g transform="translate(26.135 -111)"><path d="M88.687,262.755a2.609,2.609,0,0,1-.852-.314,2.012,2.012,0,1,1,1.48.274l-.176.04Zm.229-1.352a.657.657,0,0,0,.659-.666.661.661,0,1,0-1.322,0A.656.656,0,0,0,88.916,261.4Z" transform="translate(-85.188 -248.291)" fill="#db120d"/><path d="M331.29,262.762a2.561,2.561,0,0,1-.843-.3,2.013,2.013,0,1,1,1.358.277.3.3,0,0,0-.063.025Zm.216-1.351a.656.656,0,0,0,.661-.664.667.667,0,0,0-.654-.661.674.674,0,0,0-.672.661A.664.664,0,0,0,331.506,261.41Z" transform="translate(-320.926 -248.298)" fill="#db120d"/><path d="M178.287-111a1.944,1.944,0,0,1,.433.187,2.277,2.277,0,0,1,.4.423.2.2,0,0,0,.175.1c.2,0,.4.014.606.021.22.008.347.115.346.29s-.135.281-.353.275c-.475-.015-.949-.033-1.433-.026l.749.268a1.128,1.128,0,0,1-.817.767,1.171,1.171,0,0,1-1.435-.858,1.176,1.176,0,0,1,.9-1.424.349.349,0,0,0,.062-.027Z" transform="translate(-172.669 111)" fill="#db120d"/><path d="M32.016-10.451c.354.239.7.5,1.068.706a1.6,1.6,0,0,0,.565.092c.481.059.963.112,1.443.174a.564.564,0,0,1,.5.65.566.566,0,0,1-.646.472c-.7-.082-1.393-.161-2.087-.253a.918.918,0,0,1-.359-.147c-.378-.245-.749-.5-1.142-.737.03.036.058.074.089.108.282.31.567.617.845.93a.568.568,0,0,0,.424.219c.09,0,.118.041.117.131-.005.282,0,.563,0,.854l1.083.17c.321.05.642.094.962.147a.679.679,0,0,1,.543.981c-.425.948-.864,1.889-1.3,2.831a2.145,2.145,0,0,1-.206.3h.415c-.074.215-.156.409-.205.61s-.068.415-.1.633H32.555c-.032-.211-.048-.422-.1-.626a2.672,2.672,0,0,0-2.572-2.047,2.686,2.686,0,0,0-2.609,1.986c-.026.1-.042.193-.069.288a.538.538,0,0,1-.656.388.544.544,0,0,1-.4-.647,3.754,3.754,0,0,1,1.57-2.438c.027-.019.052-.04.113-.086-.114,0-.194,0-.274,0-.2,0-.305-.1-.309-.288-.007-.372-.01-.744,0-1.115a.953.953,0,0,1,.116-.289h-.7a.37.37,0,0,1-.42-.413q0-1.6,0-3.192a.366.366,0,0,1,.408-.41h2.457a.365.365,0,0,1,.406.411c0,1.064,0,2.128,0,3.192a.426.426,0,0,1-.247.4h.577v-.167q0-1.864,0-3.729a.777.777,0,0,1,.6-.827,1.189,1.189,0,0,1,.266-.021c.41,0,.819,0,1.229,0a.782.782,0,0,1,.886.8.422.422,0,0,0,.014.053L33.86-10.6c.292-.071.586-.138.877-.212a.59.59,0,0,1,.656.166.562.562,0,0,1,.044.68h.975c.1,0,.207,0,.311,0a.461.461,0,0,1,.458.458.466.466,0,0,1-.446.473c-.178.009-.357,0-.567,0,.061.213.115.409.175.6.016.053.054.1.074.152a1.854,1.854,0,0,0,.746.889,2.446,2.446,0,0,1,1.114,2.161A.213.213,0,0,0,38.409-5a3.77,3.77,0,0,1,2.127,3.366.465.465,0,0,1-.439.52.455.455,0,0,1-.5-.476,2.916,2.916,0,0,0-.63-1.776,2.8,2.8,0,0,0-2.115-1.088c-.4-.021-.538-.123-.633-.5-.248-.994-.495-1.988-.747-2.981a.134.134,0,0,1,.069-.179.925.925,0,0,0,.416-.987.944.944,0,0,0-.75-.737c-.37-.064-.746-.1-1.119-.146-.341-.042-.686-.061-1.022-.126a4.883,4.883,0,0,1-.678-.233l-.363-.131Zm.925,6.625.87-1.891-.479-.072v.523c0,.464-.037.5-.494.5h-.886Z" transform="translate(-26.135 14.03)" fill="#db120d"/></g></g></g></svg>