<svg xmlns="http://www.w3.org/2000/svg" width="58" height="58" viewBox="0 0 58 58"><g transform="translate(-475 -1565)"><circle cx="29" cy="29" r="29" transform="translate(475 1565)" fill="#ffebea"/><g transform="translate(135.508 1417.118)"><g transform="translate(360.492 167.882)"><path d="M505.689,345.887a1.728,1.728,0,0,1-.838-.386,1.468,1.468,0,0,1-.464-1.545,1.436,1.436,0,0,1,1.242-1.113,1.477,1.477,0,0,1,1.623.885.165.165,0,0,0,.179.111c.495,0,.99,0,1.485,0a1.5,1.5,0,0,0,1.462-1.09,1.484,1.484,0,0,1-.892-.013,1.513,1.513,0,0,1-1.06-1.456c-.011-1.388-.02-2.776,0-4.164a1.52,1.52,0,0,1,2.333-1.3,1.449,1.449,0,0,1,.731,1.308c.008,1.752.017,3.5,0,5.256a2.54,2.54,0,0,1-2.479,2.482c-.523.013-1.047,0-1.57.008a.222.222,0,0,0-.17.086,1.541,1.541,0,0,1-1.14.908.339.339,0,0,0-.062.026Z" transform="translate(-498.175 -328.41)" fill="#db120d"/><path d="M360.7,175.507a7.675,7.675,0,0,1,15.351.047,3.552,3.552,0,0,0-.337-.2,5.766,5.766,0,0,0-.585-.228.158.158,0,0,1-.134-.16,6.65,6.65,0,0,0-7.266-6.032,6.454,6.454,0,0,0-2.991,1.056,6.639,6.639,0,0,0-2.569,3.188,6.776,6.776,0,0,0-.417,1.787.2.2,0,0,1-.082.142C361.352,175.249,361.027,175.376,360.7,175.507Z" transform="translate(-360.693 -167.882)" fill="#db120d"/><path d="M408.425,339.315c0-.671,0-1.342,0-2.014a1.541,1.541,0,0,1,1.014-1.49,1.519,1.519,0,0,1,2.051,1.431c.022,1.393.024,2.788,0,4.181a1.518,1.518,0,0,1-2.325,1.3,1.483,1.483,0,0,1-.74-1.356C408.421,340.681,408.425,340,408.425,339.315Z" transform="translate(-406.374 -328.547)" fill="#db120d"/><path d="M361.519,366.908A1.475,1.475,0,0,1,360.5,365.5c-.009-.449,0-.9,0-1.348,0-.267-.006-.535,0-.8a1.523,1.523,0,0,1,.976-1.394.254.254,0,0,1,.046-.011v4.967Z" transform="translate(-360.492 -353.643)" fill="#db120d"/><path d="M695.518,366.695v-4.984a1.4,1.4,0,0,1,.881.786,1.928,1.928,0,0,1,.152.69c.02.682.011,1.364.006,2.047A1.5,1.5,0,0,1,695.518,366.695Z" transform="translate(-681.192 -353.423)" fill="#db120d"/></g></g></g></svg>