<svg xmlns="http://www.w3.org/2000/svg" width="58" height="58" viewBox="0 0 58 58"><g transform="translate(-777 -1451)"><circle cx="29" cy="29" r="29" transform="translate(777 1451)" fill="#ffebea"/><g transform="translate(798 1472)"><path d="M127.665,223.2c0-.568,0-1.136,0-1.7a2.043,2.043,0,0,1,2.1-2.1q1.7,0,3.408,0a2.042,2.042,0,0,1,2.1,2.1q.005,1.7,0,3.408a2.042,2.042,0,0,1-2.1,2.1q-1.7.005-3.408,0a2.044,2.044,0,0,1-2.1-2.1C127.663,224.339,127.665,223.771,127.665,223.2Z" transform="translate(-127.664 -219.394)" fill="#db120d"/><path d="M131.458,394.682c-.568,0-1.136,0-1.7,0a2.044,2.044,0,0,1-2.1-2.1q0-1.7,0-3.408a2.042,2.042,0,0,1,2.1-2.1q1.7-.005,3.408,0a2.042,2.042,0,0,1,2.1,2.1q.005,1.7,0,3.408a2.043,2.043,0,0,1-2.1,2.1C132.594,394.685,132.026,394.682,131.458,394.682Z" transform="translate(-127.647 -378.183)" fill="#db120d"/><path d="M302.936,390.9c0,.561,0,1.123,0,1.684a2.044,2.044,0,0,1-2.1,2.1q-1.7.005-3.408,0a2.043,2.043,0,0,1-2.1-2.1q0-1.7,0-3.408a2.042,2.042,0,0,1,2.1-2.1q1.7,0,3.408,0a2.043,2.043,0,0,1,2.1,2.1C302.938,389.747,302.936,390.321,302.936,390.9Z" transform="translate(-286.436 -378.183)" fill="#db120d"/><path d="M299.183,227.045a3.806,3.806,0,1,1,3.795-3.818A3.809,3.809,0,0,1,299.183,227.045Z" transform="translate(-286.478 -219.431)" fill="#db120d"/></g></g></svg>