<svg xmlns="http://www.w3.org/2000/svg" width="84.22" height="43.553" viewBox="0 0 84.22 43.553"><g transform="translate(-123.714 -328.712)"><g transform="translate(123.714 328.712)"><g transform="translate(0 29.84)"><path d="M129.577,463.258v2.481h2.115v1.575a2.254,2.254,0,0,1-.733.257,5.131,5.131,0,0,1-.948.08,4.85,4.85,0,0,1-1.641-.267,3.61,3.61,0,0,1-1.281-.778,3.566,3.566,0,0,1-.842-1.25,4.387,4.387,0,0,1-.3-1.656,5.753,5.753,0,0,1,.267-1.835,3.392,3.392,0,0,1,.79-1.318,3.316,3.316,0,0,1,1.292-.8,5.376,5.376,0,0,1,1.764-.267,4.347,4.347,0,0,1,.915.116,8.924,8.924,0,0,1,1.016.292,4.727,4.727,0,0,1,.8.354l.783-2.391a6.888,6.888,0,0,0-1.665-.682,8.094,8.094,0,0,0-2.165-.274,6.788,6.788,0,0,0-2.389.425,5.559,5.559,0,0,0-2.016,1.3,6.249,6.249,0,0,0-1.382,2.2,8.679,8.679,0,0,0-.507,3.111,6.855,6.855,0,0,0,.45,2.514,5.662,5.662,0,0,0,1.3,1.993,5.962,5.962,0,0,0,2.049,1.311,7.332,7.332,0,0,0,2.7.469,5.928,5.928,0,0,0,1.2-.132,10.158,10.158,0,0,0,1.241-.347,6.84,6.84,0,0,0,1.073-.469,2.5,2.5,0,0,0,.684-.5v-5.509Z" transform="translate(-123.45 -456.509)" fill="#fff"/><path d="M182.845,468.056V465.24h5.262v-2.479h-5.262v-2.783h5.943V457.5H180.43v13.037h8.592v-2.481Z" transform="translate(-166.992 -456.967)" fill="#fff"/><path d="M229.865,468.056V465.24h5.262v-2.479h-5.262v-2.783h5.945V457.5H227.45v13.037h8.592v-2.481Z" transform="translate(-202.923 -456.967)" fill="#fff"/><path d="M270.94,457.5v2.479h2.865v10.559h2.415V459.979H279.2V457.5Z" transform="translate(-236.156 -456.967)" fill="#fff"/><path d="M319.851,466.694a3.79,3.79,0,0,1-1.066.71,3.845,3.845,0,0,1-1.682.335,3.706,3.706,0,0,1-1.523-.3,3.3,3.3,0,0,1-1.158-.861,3.87,3.87,0,0,1-.741-1.337,5.431,5.431,0,0,1-.257-1.717,4.62,4.62,0,0,1,.283-1.639,4.322,4.322,0,0,1,.774-1.321,3.5,3.5,0,0,1,1.132-.875,3.034,3.034,0,0,1,1.342-.311,3.383,3.383,0,0,1,1.59.363,7.021,7.021,0,0,1,1.108.7l.948-2.427a7.289,7.289,0,0,0-1.549-.762,6.214,6.214,0,0,0-2.182-.354,5.84,5.84,0,0,0-2.429.5,5.488,5.488,0,0,0-1.891,1.4,6.369,6.369,0,0,0-1.215,2.144,8.382,8.382,0,0,0-.424,2.729,7.44,7.44,0,0,0,.415,2.5,6.37,6.37,0,0,0,1.207,2.073,5.675,5.675,0,0,0,1.932,1.424,6.54,6.54,0,0,0,2.59.559,5.741,5.741,0,0,0,1.731-.212,6.37,6.37,0,0,0,1.325-.533,4.687,4.687,0,0,0,.741-.476Z" transform="translate(-266.7 -456.509)" fill="#fff"/><path d="M372.15,461.027a6.881,6.881,0,0,0-1.366-2.134,6.549,6.549,0,0,0-2.007-1.462,5.793,5.793,0,0,0-4.844,0,6.343,6.343,0,0,0-1.99,1.462,6.894,6.894,0,0,0-1.34,2.134,6.761,6.761,0,0,0-.483,2.549,6.867,6.867,0,0,0,.483,2.587,6.671,6.671,0,0,0,1.34,2.115,6.236,6.236,0,0,0,1.99,1.427,5.962,5.962,0,0,0,4.844,0,6.438,6.438,0,0,0,2.007-1.427,6.661,6.661,0,0,0,1.366-2.115,6.781,6.781,0,0,0,.491-2.587A6.677,6.677,0,0,0,372.15,461.027Zm-2.29,4.172a4.324,4.324,0,0,1-.783,1.328,3.539,3.539,0,0,1-1.172.894,3.376,3.376,0,0,1-1.458.318,3.552,3.552,0,0,1-1.507-.318,3.748,3.748,0,0,1-1.215-.894,4.187,4.187,0,0,1-.816-1.328,4.426,4.426,0,0,1-.292-1.623,4.687,4.687,0,0,1,.283-1.646,4.129,4.129,0,0,1,.8-1.337,3.724,3.724,0,0,1,1.2-.9,3.609,3.609,0,0,1,2.965,0,3.647,3.647,0,0,1,1.191.9,4.394,4.394,0,0,1,.8,1.337,4.8,4.8,0,0,1,.007,3.269Z" transform="translate(-304.304 -456.509)" fill="#fff"/><path d="M436.039,455.24l-6.356,9.379-6.217-9.379h-.017v13.57h2.332v-5.835l3.847,5.658h.033l4-6.042v6.219h2.415V455.24Z" transform="translate(-352.698 -455.24)" fill="#fff"/></g><g transform="translate(0.08)"><rect width="2.278" height="2.25" transform="translate(35.958 10.645)" fill="#fff"/><rect width="2.279" height="2.25" transform="translate(32.504 10.645)" fill="#fff"/><rect width="2.278" height="2.27" transform="translate(47.232 24.223)" fill="#fff"/><rect width="2.279" height="2.27" transform="translate(43.778 24.223)" fill="#fff"/><rect width="2.297" height="2.27" transform="translate(58.02 24.223)" fill="#fff"/><path d="M139.9,345.574l-.024.024h4.632a3.355,3.355,0,0,1,2.535,1.116,4.547,4.547,0,0,1,1.174,2.623h-9.379a4.6,4.6,0,0,0-4.533-4.384h-5.762c-3.023,0-4.759,2.3-4.759,5.778v7.714h2.288V351.23c0-2.368.981-3.8,2.512-3.8h1.677a5.4,5.4,0,0,0-.573,2.564c0,2.825,1.9,5.064,4.618,5.064a4.415,4.415,0,0,0,4.266-3.1h50.51v-.9c0-5.106-2.186-8.158-6.394-8.179a5.909,5.909,0,0,0-4.559,2.075c.608.88,1.031,1.486,1.288,1.858a4.511,4.511,0,0,1,3.087-1.408,3.914,3.914,0,0,1,3.84,3.931H173.264a6.14,6.14,0,0,0,.292-1.976V343.1h-2.59v4.361c0,1.252-.422,1.88-1.285,1.88h-7.766a6.136,6.136,0,0,0,.311-1.976V343.1h-2.59v4.361c0,1.252-.441,1.88-1.3,1.88h-7.408c-.276-2.623-1.231-4.441-2.868-5.479a5.57,5.57,0,0,0-2.389-.783h-1.377a60.107,60.107,0,0,1,9.7-5.431c.389-.139.776-.274,1.16-.4.1-.028.208-.059.307-.085a3.343,3.343,0,0,0,1-.314c20.848-6,35.819,8.139,37.411,9.719a8.57,8.57,0,0,1,2.526-2.274,53.124,53.124,0,0,0-4.384-3.5l1.262-1.891a57.635,57.635,0,0,1,5.57,4.41,8.745,8.745,0,0,1,1.955-.219,8.65,8.65,0,0,1,2.62.4C169.611,309.241,140.216,345.19,139.9,345.574Zm-5.533,7.243c-1.37,0-2.33-1.259-2.33-2.847,0-1.564.8-2.781,2.186-2.781,1.41,0,2.309,1.238,2.309,2.868C136.537,351.666,135.657,352.817,134.372,352.817Zm8.827-9.483h-.026l-.245-.366c.106-.1.238-.222.391-.363l.269.4C143.332,343.216,143.2,343.334,143.2,343.334Zm.766-.634-.285-.417c.1-.09.212-.186.328-.285l.316.424C144.193,342.52,144.075,342.615,143.966,342.7Zm.741-.571-.33-.446c.134-.113.278-.233.429-.356l.347.474C145,341.914,144.848,342.025,144.707,342.129Zm.84-.608-.366-.5.538-.424.361.547C145.893,341.275,145.714,341.4,145.546,341.52Zm1.031-.71-.38-.578c.177-.132.358-.269.547-.408l.382.623C146.938,340.57,146.754,340.693,146.577,340.811Zm1.057-.684-.4-.653c.189-.134.38-.269.578-.406l.415.691C148.023,339.884,147.824,340,147.633,340.127Zm1.106-.677-.432-.719c.179-.123.366-.245.554-.368l.413.776C149.093,339.242,148.914,339.348,148.739,339.45Zm1.059-.606-.432-.807c.229-.144.46-.288.7-.434l.439.856C150.261,338.587,150.027,338.716,149.8,338.844Zm1.233-.665-.453-.884q.527-.315,1.085-.625l.455.962C151.746,337.813,151.383,338,151.032,338.179Zm1.63-.807-.472-.993q.658-.357,1.356-.705l.434,1.1Q153.3,337.069,152.661,337.372Zm2.054-.91-.448-1.139q.757-.364,1.557-.708l.42,1.248Q155.462,336.153,154.716,336.462Zm2.538-.96-.439-1.3q.81-.326,1.658-.625l.467,1.384C158.364,335.132,157.8,335.313,157.253,335.5Zm2.717-.833-.483-1.434q.991-.322,2.026-.6l.391,1.559Q160.917,334.411,159.97,334.669Zm2.981-.686-.4-1.606c.927-.219,1.877-.408,2.851-.559l.182,1.759Q164.236,333.736,162.951,333.983Zm6.4-.656c-.917.012-1.823.061-2.71.142l-.184-1.8c.943-.12,1.91-.205,2.894-.248Zm4.941.274a35.223,35.223,0,0,0-3.738-.271v-1.941a34.731,34.731,0,0,1,4.012.193Zm5.4,1.116a36.076,36.076,0,0,0-4.207-.946l.276-2.042a35.727,35.727,0,0,1,4.561.951ZM185.2,336.8a37.845,37.845,0,0,0-4.108-1.644l.634-2.057s2.941,1.038,4.441,1.726Zm5.453,3.068a43.37,43.37,0,0,0-4.1-2.4l.974-1.986a45.91,45.91,0,0,1,4.38,2.514Z" transform="translate(-123.79 -328.713)" fill="#fff"/></g><g transform="translate(18.86 14.598)"><path d="M203.426,390.611l-.007.007h.012Z" transform="translate(-203.419 -390.611)" fill="#fff"/></g><path d="M6.643,18.3a.544.544,0,0,1-.457-.258L.722,9.535h.03A6.35,6.35,0,0,1,0,6.526,6.431,6.431,0,0,1,1.942,1.911a6.709,6.709,0,0,1,9.38,0,6.429,6.429,0,0,1,1.192,7.623h.052L7.1,18.039A.544.544,0,0,1,6.643,18.3ZM6.633,2.787A3.779,3.779,0,0,0,2.979,6.673a3.78,3.78,0,0,0,3.653,3.886,3.78,3.78,0,0,0,3.653-3.886A3.779,3.779,0,0,0,6.633,2.787Z" transform="translate(70.455 16.572)" fill="#fff" stroke="rgba(0,0,0,0)" stroke-miterlimit="10" stroke-width="1"/></g></g></svg>