<svg xmlns="http://www.w3.org/2000/svg" xmlns:xlink="http://www.w3.org/1999/xlink" width="171.762" height="356.548" viewBox="0 0 171.762 356.548"><defs><clipPath id="a"><rect x="206" width="171.762" height="356.548" fill="none"/></clipPath></defs><g transform="translate(-206)" clip-path="url(#a)" style="isolation:isolate"><g transform="translate(762.008 -370.78) rotate(19)"><g transform="translate(-516.128 569.862)"><path d="M-210.167,781.508c-2.567,7.151-7.646,9.954-15.2,9.694-10.241-.352-20.5-.035-30.756-.116a17.944,17.944,0,0,0-9.822,2.822c-13.346,8.1-26.827,15.977-40.316,23.835a3.713,3.713,0,0,1-3.151,0c-13.9-8.139-27.68-16.485-41.643-24.513a17.2,17.2,0,0,0-8.2-2.029q-71.821-.179-143.642-.09c-6.074,0-10.581-2.888-12.453-7.914a12.288,12.288,0,0,1,10.9-16.5c1.189-.092,2.388-.047,3.582-.047q137.371,0,274.741-.09c7.605-.011,13.151,2.186,15.958,9.575Z" transform="translate(516.128 -648.795)" fill="#f6f6f6"/><path d="M-214.542,667.338H-493.527c.532-3.57.884-7.075,1.59-10.508a108.38,108.38,0,0,1,85.488-84.825,120.3,120.3,0,0,1,21.65-1.992c20.406-.26,40.818-.111,61.228-.088,52.631.062,96.228,35.263,107.315,86.677C-215.51,660.061-215.129,663.6-214.542,667.338Zm-108.382-51.473a10.348,10.348,0,0,0-9.935-10.588c-5.271-.053-10.15,4.565-10.235,9.687a10.351,10.351,0,0,0,10,10.533A10.125,10.125,0,0,0-322.923,615.865Zm32.107,9.629c5.355-.006,10.137-4.572,10.174-9.714.04-5.606-4.668-10.5-10.1-10.5-5.307,0-10.1,4.622-10.136,9.764A10.318,10.318,0,0,0-290.817,625.493Zm-95.4,11.1a10.249,10.249,0,0,0-9.982-10.5c-5.352-.011-10.11,4.542-10.149,9.715a10.368,10.368,0,0,0,10.022,10.52A10.222,10.222,0,0,0-386.222,636.6Zm42.275.008A10.421,10.421,0,0,0-354,626.107c-5.341-.013-10.132,4.552-10.183,9.7a10.42,10.42,0,0,0,10.047,10.522C-348.845,646.351-344.005,641.733-343.946,636.6Zm22.034-.825a10.28,10.28,0,0,0,9.94,10.556c5.32.038,10.115-4.53,10.186-9.7a10.357,10.357,0,0,0-9.995-10.529A10.132,10.132,0,0,0-321.913,635.779Zm-95.46-10.286c5.368-.011,10.1-4.562,10.119-9.737.023-5.642-4.654-10.492-10.1-10.472-5.306.019-10.125,4.67-10.141,9.789A10.37,10.37,0,0,0-417.373,625.493Zm42.169.007c5.365-.005,10.128-4.561,10.159-9.718.033-5.618-4.652-10.5-10.087-10.5-5.315-.005-10.059,4.593-10.081,9.77A10.2,10.2,0,0,0-375.2,625.5Z" transform="translate(507.058 -569.862)" fill="#f6f6f6"/><path d="M-494.35,950.458h279.92c-.254,7.543.841,14.994-1.661,22.25-4.665,13.524-16.588,21.617-32.065,21.62q-105.44.019-210.88,0c-1.989,0-3.984-.041-5.965-.2a31.448,31.448,0,0,1-29.327-30.634C-494.474,959.227-494.35,954.957-494.35,950.458Z" transform="translate(507.408 -722.595)" fill="#f6f6f6"/><path d="M-362.382,887.073q-64.383,0-128.765-.008c-11.248-.005-20.333-7.2-22.212-17.476A21.758,21.758,0,0,1-492.546,843.6c.8-.032,1.593-.019,2.39-.019q65.13,0,130.259.064a11.641,11.641,0,0,1,5.565,1.523q20.26,11.764,40.348,23.821c4.9,2.959,9.372,2.908,14.249-.028q20.2-12.16,40.614-23.96a10.808,10.808,0,0,1,5.009-1.358c7.068-.147,14.141-.109,21.211-.051,12.6.1,22.3,9.522,22.376,21.652.072,12.221-9.733,21.8-22.493,21.814Q-297.7,887.11-362.382,887.073Z" transform="translate(515.172 -679.69)" fill="#ffebea"/></g></g></g></svg>