<svg xmlns="http://www.w3.org/2000/svg" width="372.809" height="192.448" viewBox="0 0 372.809 192.448"><g transform="translate(-230.933 107.589)" opacity="0.22"><path d="M144.095,421.775l-.13.13c13.921-8.426,24.34-13.927,24.34-13.927S199.049,386.8,221.854,378c2.148-.768,4.282-1.51,6.4-2.2.573-.156,1.145-.325,1.692-.469,4.048-1.041,5.61-1.562,5.493-1.731,115.063-33.1,197.69,44.919,206.476,53.64a47.3,47.3,0,0,1,13.94-12.548,293.219,293.219,0,0,0-24.2-19.29l6.964-10.439a318.064,318.064,0,0,1,30.744,24.34,48.268,48.268,0,0,1,10.791-1.21,47.742,47.742,0,0,1,14.461,2.226C308.047,221.248,145.813,419.653,144.095,421.775Zm18.184-12.366h-.143l-1.354-2.017c.586-.56,1.315-1.224,2.161-2l1.484,2.2C163.007,408.759,162.278,409.409,162.278,409.409Zm4.23-3.5-1.575-2.3c.573-.495,1.172-1.028,1.809-1.575l1.744,2.343C167.758,404.919,167.107,405.44,166.509,405.909Zm4.087-3.15-1.822-2.46c.742-.625,1.536-1.289,2.369-1.965l1.913,2.616C172.2,401.574,171.377,402.186,170.6,402.758Zm4.634-3.358-2.017-2.746q1.425-1.132,2.968-2.343l1.991,3.02C177.143,398.047,176.154,398.737,175.229,399.4Zm5.688-3.918-2.1-3.189c.976-.729,1.979-1.484,3.02-2.252l2.109,3.436C182.909,394.155,181.894,394.832,180.918,395.483Zm5.831-3.775-2.213-3.605c1.041-.742,2.1-1.484,3.189-2.239l2.291,3.814C188.9,390.367,187.8,391.031,186.749,391.708Zm6.1-3.736L190.472,384c.989-.677,2.017-1.354,3.059-2.03l2.278,4.283C194.806,386.827,193.817,387.412,192.853,387.972Zm5.844-3.345-2.382-4.452c1.263-.794,2.538-1.588,3.84-2.395l2.421,4.725C201.249,383.208,199.96,383.924,198.7,384.627Zm6.808-3.67-2.5-4.881q2.909-1.738,5.987-3.449l2.512,5.311C209.449,378.939,207.445,379.954,205.505,380.956ZM214.5,376.5l-2.6-5.48q3.632-1.972,7.484-3.892l2.4,6.078Q218.027,374.832,214.5,376.5Zm11.337-5.024-2.473-6.287q4.178-2.011,8.591-3.9l2.317,6.886Q229.956,369.775,225.837,371.481Zm14.006-5.3-2.421-7.172q4.471-1.8,9.151-3.45l2.577,7.641C245.973,364.14,242.875,365.142,239.842,366.183Zm14.995-4.595-2.668-7.914q5.467-1.777,11.181-3.306l2.161,8.6Q260.063,360.163,254.837,361.588Zm16.452-3.788-2.226-8.864c5.115-1.21,10.361-2.252,15.737-3.085l1,9.71Q278.383,356.44,271.289,357.8Zm35.3-3.619c-5.063.065-10.061.339-14.956.781l-1.015-9.931c5.207-.664,10.543-1.132,15.971-1.367Zm27.269,1.51a194.361,194.361,0,0,0-20.631-1.5V343.483a191.717,191.717,0,0,1,22.141,1.067Zm29.794,6.157a199.107,199.107,0,0,0-23.221-5.22l1.523-11.272a197.174,197.174,0,0,1,25.173,5.246ZM394.1,373.342a208.905,208.905,0,0,0-22.674-9.073l3.5-11.35a217.558,217.558,0,0,1,24.51,9.528Zm30.093,16.934a239.367,239.367,0,0,0-22.622-13.263l5.376-10.96a253.346,253.346,0,0,1,24.171,13.875Z" transform="translate(86.968 -436.302)" fill="#d5d5d5"/><path d="M36.666,100.985a3,3,0,0,1-2.525-1.426L3.983,52.622H4.15A35.044,35.044,0,0,1,0,36.016,35.494,35.494,0,0,1,10.72,10.549a37.03,37.03,0,0,1,51.767,0,35.484,35.484,0,0,1,6.577,42.073h.285L39.191,99.559A3,3,0,0,1,36.666,100.985ZM36.607,15.38C25.489,15.38,16.444,25,16.444,36.827s9.045,21.45,20.163,21.45S56.77,48.654,56.77,36.827,47.725,15.38,36.607,15.38Z" transform="translate(530.527 -16.127)" fill="#d5d5d5"/></g></svg>