<svg xmlns="http://www.w3.org/2000/svg" xmlns:xlink="http://www.w3.org/1999/xlink" width="490.684" height="361" viewBox="0 0 490.684 361"><defs><clipPath id="a"><rect x="-14" y="-6" width="490.684" height="361" fill="none"/></clipPath><linearGradient id="b" x1="0.5" x2="0.5" y2="1" gradientUnits="objectBoundingBox"><stop offset="0" stop-color="#e0b154"/><stop offset="0.204" stop-color="#c18829"/><stop offset="0.495" stop-color="#ebc55c"/><stop offset="0.73" stop-color="#ddae45"/><stop offset="1" stop-color="#be8122"/></linearGradient></defs><g transform="translate(14 6)" clip-path="url(#a)" style="isolation:isolate"><g transform="translate(-198.89 -330)"><g transform="translate(198.89 330)"><g transform="translate(0 170.864)"><path d="M85.952,419.488c89.419,45.718,234.4,45.719,323.816,0s89.42-119.841,0-165.559-234.4-45.719-323.817,0S-3.469,373.77,85.952,419.488Z" transform="translate(-18.886 -219.641)" fill="#f5f5f5" opacity="0.15"/></g><g transform="translate(76.37 257.221)"><path d="M375.752,345.805c4.9,2.829,14.532,1.855,21.512-2.175L437.5,320.263c6.98-4.03,8.657-9.6,3.746-12.43S426.7,305.969,419.716,310l-40.2,23.377C372.536,337.413,370.852,342.975,375.752,345.805Z" transform="translate(-92.615 -305.352)" fill="#ebebeb"/><path d="M135.614,367.251,94.691,343.623,135.614,320Z" transform="translate(-94.691 -305.249)" fill="#ebebeb"/><path d="M250.608,381.5l-65.959-38.106,65.975-38.031Z" transform="translate(-94.02 -305.358)" fill="#ebebeb"/></g><g transform="translate(2.039 177.068)"><g transform="translate(0 25.912)"><path d="M80.8,312.518c.115-9.572-6.57-29.481-16.353-42.029s-25.291-21.823-36.43-18.162c-10.375,3.41-9.419,16.979,3.009,26.111s31.136,20.643,36.461,36.235l11.338,19.19Z" transform="translate(-20.911 -251.519)" fill="url(#b)"/><path d="M80.8,312.518c.115-9.572-6.57-29.481-16.353-42.029s-25.291-21.823-36.43-18.162c-10.375,3.41-9.419,16.979,3.009,26.111s31.136,20.643,36.461,36.235l11.338,19.19Z" transform="translate(-20.911 -251.519)" opacity="0.1"/><g transform="translate(11.49 6.494)"><path d="M81.268,325.577a.7.7,0,0,1-.624-.57c-6.017-32.752-32.13-59.629-47.881-65.686a.7.7,0,0,1-.4-.9.692.692,0,0,1,.9-.4c16.05,6.173,42.646,33.491,48.754,66.739a.7.7,0,0,1-.561.814A.682.682,0,0,1,81.268,325.577Z" transform="translate(-32.316 -257.965)" fill="#fff"/></g><g transform="translate(5.791 41.299)"><path d="M76.187,346.175c-1.474-5.4-7.939-14.357-18.48-21.82-11.661-8.255-26.5-12.165-29.852-18.521-4.03-7.635,2.45-14.726,14.511-13.084s33.1,18.379,36.2,43.232Z" transform="translate(-26.659 -292.512)" fill="url(#b)"/><g transform="translate(9.935 6.586)"><path d="M78.518,340.509a.7.7,0,0,1-.6-.469c-9.684-28.113-30.922-38.195-40.8-39.6a.7.7,0,0,1-.594-.791.69.69,0,0,1,.791-.594c10.922,1.551,32.041,11.833,41.926,40.528a.7.7,0,0,1-.726.925Z" transform="translate(-36.52 -299.049)" fill="#fff"/></g></g></g><g transform="translate(409.377)"><g transform="translate(0.308)"><path d="M434.98,285.465s1.343-20.18,13.236-35.161,11.162-21.15,2.961-24.174-27.247,15.03-23.008,39.208S434.98,285.465,434.98,285.465Z" transform="translate(-427.561 -225.798)" fill="url(#b)"/><path d="M434.98,285.465s1.343-20.18,13.236-35.161,11.162-21.15,2.961-24.174-27.247,15.03-23.008,39.208S434.98,285.465,434.98,285.465Z" transform="translate(-427.561 -225.798)" opacity="0.1"/><g transform="translate(3.232 3.031)"><path d="M431.323,273.915a.468.468,0,0,1-.467-.439c-1.389-22.224,14.3-40.458,20.18-44.584a.468.468,0,0,1,.538.767c-5.76,4.047-21.148,21.934-19.784,43.759a.469.469,0,0,1-.438.5Z" transform="translate(-430.769 -228.807)" fill="#fff"/></g></g><g transform="translate(0 32.473)"><path d="M431.749,301.89a106.467,106.467,0,0,0,16.376,3.941c9.209,1.459,13.273-2.946,13.273-2.946s-3.626-8.637-8.856-11.061a51.392,51.392,0,0,1,15.983,6.557s5.624.085,7.862-8.5c0,0-3.333-5.165-14.511-7.955,0,0,6.8-1.712,16.6.788.735.292,3.868-10.8,4.816-15.925s-1.11-5.065-5.1-6.131-17.211-4.035-19.71-1.84-3.768,9.7-3.768,9.7a17.7,17.7,0,0,1-.375-9.514s-3.592-1.4-9.166.218c-4.559,1.326-4.782,4.429-4.575,7.935a34.277,34.277,0,0,0,1.974,8.9s-3.554-4.556-3.664-14.432c0,0-9.33,4.635-10.923,13.9C427.126,280.532,425.9,295.237,431.749,301.89Z" transform="translate(-427.256 -258.031)" fill="url(#b)"/><g transform="translate(5.735 5.434)"><path d="M433.466,300.048a.517.517,0,0,0,.466-.293c7.432-15.439,35.062-33.38,44.959-35.3a.518.518,0,1,0-.2-1.018C468.633,265.39,440.549,283.62,433,299.307a.515.515,0,0,0,.242.69A.508.508,0,0,0,433.466,300.048Z" transform="translate(-432.949 -263.424)" fill="#fff"/></g></g></g></g><g transform="translate(55.912 0)"><g transform="translate(-74.385 -49.951)" fill="#fafafa" stroke-miterlimit="10"><path d="M 76.79846954345703 355.0365600585938 C 75.65347290039062 355.0364990234375 74.96993255615234 354.0907592773438 74.96993255615234 352.5067749023438 L 74.96993255615234 183.0410614013672 L 282.5086059570312 63.21712875366211 L 282.5106201171875 232.0074615478516 C 282.5106201171875 233.2516937255859 282.0846252441406 234.6746826171875 281.31103515625 236.0142974853516 C 280.5374755859375 237.3539886474609 279.5177917480469 238.4345397949219 278.4398193359375 239.056884765625 L 78.45485687255859 354.5188293457031 C 77.86820220947266 354.8575744628906 77.29543304443359 355.0365600585938 76.79846954345703 355.0365600585938 Z" stroke="none"/><path d="M 76.79862976074219 355.6214599609375 L 76.79862976074219 354.45166015625 C 77.19300842285156 354.45166015625 77.66458892822266 354.2997131347656 78.16239929199219 354.0122985839844 L 278.1473999023438 238.5503387451172 C 280.1954650878906 237.3678741455078 281.9257507324219 234.3716125488281 281.9257507324219 232.0074615478516 L 281.9237365722656 64.23020172119141 L 75.55481719970703 183.3787689208984 L 75.55481719970703 352.5067749023438 C 75.55481719970703 353.1826782226562 75.70208740234375 353.739501953125 75.96947479248047 354.0745849609375 C 76.17189788818359 354.3283081054688 76.44308471679688 354.4515991210938 76.79850769042969 354.45166015625 L 76.79862976074219 355.6214599609375 M 76.79844665527344 355.6214599609375 C 75.36740875244141 355.6213989257812 74.385009765625 354.4804382324219 74.385009765625 352.5067749023438 L 74.385009765625 182.7033843994141 L 283.093505859375 62.20403289794922 L 283.0955505371094 232.0074615478516 C 283.0955505371094 234.7890319824219 281.1420593261719 238.1721496582031 278.7322692871094 239.5634155273438 L 78.74732208251953 355.025390625 C 78.0467529296875 355.4298706054688 77.38497161865234 355.6214904785156 76.79844665527344 355.6214599609375 Z" stroke="none" fill="#e0e0e0"/></g><path d="M74.385,182.7v28.354L283.092,90.56l0-28.356Z" transform="translate(-74.385 -49.951)" fill="url(#b)"/><path d="M90.632,183.6v4.066c0,.831.589,1.171,1.31.756l64.167-37.047V144.29L91.941,181.337A2.9,2.9,0,0,0,90.632,183.6Z" transform="translate(-74.263 -49.339)" fill="#fafafa"/><path d="M162.5,140.35c.722-.417,1.309-.079,1.309.756v4.066a2.894,2.894,0,0,1-1.309,2.267l-6.877,3.97v-7.088Z" transform="translate(-73.779 -49.37)" fill="#455a64"/><path d="M74.385,173.654a9.642,9.642,0,0,1,4.362-7.556L278.731,50.637c2.41-1.39,4.362-.263,4.362,2.519v9.139L74.385,182.794Z" transform="translate(-74.385 -50.042)" fill="#2f2f2f"/><g transform="translate(183.468 8.439)"><path d="M258.539,66.138a4.523,4.523,0,0,0-2.045,3.544c0,1.3.916,1.835,2.045,1.182a4.524,4.524,0,0,0,2.047-3.544C260.586,66.014,259.67,65.485,258.539,66.138Z" transform="translate(-256.494 -58.363)" fill="url(#b)"/><path d="M264.974,62.418a4.522,4.522,0,0,0-2.046,3.544c0,1.3.916,1.834,2.046,1.182A4.523,4.523,0,0,0,267.02,63.6C267.02,62.294,266.1,61.765,264.974,62.418Z" transform="translate(-256.446 -58.391)" fill="url(#b)"/><path d="M271.408,58.7a4.52,4.52,0,0,0-2.046,3.544c0,1.3.916,1.834,2.046,1.182a4.523,4.523,0,0,0,2.046-3.544C273.454,58.574,272.539,58.045,271.408,58.7Z" transform="translate(-256.398 -58.418)" fill="url(#b)"/></g><g transform="translate(118.297 34.809)" opacity="0.1"><path d="M216.588,108.68a9.885,9.885,0,0,0-4.473,7.747c0,2.853,2,4.01,4.473,2.583a9.886,9.886,0,0,0,4.472-7.747C221.06,108.41,219.058,107.253,216.588,108.68Z" transform="translate(-191.654 -84.418)"/><path d="M196.278,120.406a9.886,9.886,0,0,0-4.472,7.747c0,2.853,2,4.01,4.472,2.583a9.885,9.885,0,0,0,4.473-7.747C200.751,120.136,198.748,118.979,196.278,120.406Z" transform="translate(-191.806 -84.331)"/><path d="M236.9,96.953a9.888,9.888,0,0,0-4.473,7.748c0,2.853,2,4.01,4.473,2.583a9.888,9.888,0,0,0,4.473-7.748C241.371,96.684,239.368,95.527,236.9,96.953Z" transform="translate(-191.503 -84.505)"/><path d="M257.209,85.2a9.889,9.889,0,0,0-4.473,7.748c0,2.853,2,4.01,4.473,2.583a9.885,9.885,0,0,0,4.472-7.747C261.681,84.935,259.679,83.778,257.209,85.2Z" transform="translate(-191.351 -84.593)"/></g><path d="M94.994,212.358l48.568-28.041c2.41-1.39,4.363-.263,4.363,2.519v46.631a9.643,9.643,0,0,1-4.363,7.556L95,269.064c-2.409,1.391-4.362.264-4.362-2.519V219.914A9.645,9.645,0,0,1,94.994,212.358Z" transform="translate(-74.263 -49.045)" fill="#e0e0e0"/><path d="M164.053,172.717l101.765-58.757c2.409-1.39,4.362-.263,4.362,2.519v46.631a9.645,9.645,0,0,1-4.362,7.556L164.054,229.422c-2.409,1.391-4.362.264-4.362-2.519V180.272A9.642,9.642,0,0,1,164.053,172.717Z" transform="translate(-73.748 -49.57)" fill="#e0e0e0"/><g transform="translate(16.37 188.985)"><path d="M95,282.838l77.214-44.58c2.409-1.39,4.362-.4,4.362,2.207a9.352,9.352,0,0,1-4.361,7.244L95,292.289c-2.41,1.39-4.362.4-4.362-2.207A9.353,9.353,0,0,1,95,282.838Z" transform="translate(-90.633 -237.628)" fill="#e0e0e0"/><path d="M95,299.252l77.214-44.579c2.409-1.391,4.362-.4,4.362,2.206a9.352,9.352,0,0,1-4.361,7.244L95,308.7c-2.41,1.391-4.362.4-4.362-2.206A9.353,9.353,0,0,1,95,299.252Z" transform="translate(-90.633 -237.505)" fill="#e0e0e0"/><path d="M95,315.667l77.214-44.58c2.409-1.391,4.362-.4,4.362,2.206a9.349,9.349,0,0,1-4.361,7.244L95,325.117c-2.41,1.391-4.362.4-4.362-2.206A9.35,9.35,0,0,1,95,315.667Z" transform="translate(-90.633 -237.383)" fill="#e0e0e0"/></g></g><g transform="translate(113.201 128.725)"><g transform="translate(0 0)"><g transform="translate(0.004 0.001)"><path d="M131.253,260.284a5.784,5.784,0,0,1,2.617-4.534l133.9-77.309a5.785,5.785,0,0,1,5.235,0l2.95,1.7a5.784,5.784,0,0,1,2.617,4.534V287.317a5.809,5.809,0,0,1-2.617,4.534l-133.9,77.309a5.813,5.813,0,0,1-5.235,0l-2.95-1.7a5.809,5.809,0,0,1-2.617-4.534Z" transform="translate(-131.253 -177.815)" fill="url(#b)"/></g><path d="M132.011,257.706l7.429,4.284L277.8,182.1a5.412,5.412,0,0,0-1.845-1.956l-2.96-1.7a5.718,5.718,0,0,0-5.225,0l-133.9,77.3A5.327,5.327,0,0,0,132.011,257.706Z" transform="translate(-131.243 -177.814)" fill="#fff" opacity="0.4"/><path d="M131.249,259.689V362.326a5.772,5.772,0,0,0,2.625,4.533l2.947,1.709a4.2,4.2,0,0,0,.718.322,5.655,5.655,0,0,0,1.077.248,6.411,6.411,0,0,0,2.067-.074c.173-.036.348-.087.508-.136a2.36,2.36,0,0,0,.31-.124,1.552,1.552,0,0,1-1.251-.024,1.813,1.813,0,0,1-.8-1.722V264.419a2.294,2.294,0,0,1,1.362-2.228l-1.362-.793-7.429-4.284A5.374,5.374,0,0,0,131.249,259.689Z" transform="translate(-131.249 -177.222)" opacity="0.1"/><path d="M139.385,261.96,201.4,285.127a10.075,10.075,0,0,0,11.962-3.938l9.958-15.256,54.926-84.149L225.3,266.506l53.212,20.825a5.445,5.445,0,0,1-.817,2.612l-52.544-23.2L213.58,285.263a10.077,10.077,0,0,1-12.617,3.876l-8.24-3.637L140.19,369.34a1.813,1.813,0,0,1-.8-1.722V365.91l53.081-80.52Z" transform="translate(-131.188 -177.784)" opacity="0.2"/></g></g><g transform="translate(231.883 25.797)"><path d="M249.052,144.918V380.567c0,2.782,1.953,3.909,4.362,2.519l105.863-61.119a9.644,9.644,0,0,0,4.362-7.556V78.762c0-2.782-1.953-3.909-4.362-2.519L253.414,137.362A9.645,9.645,0,0,0,249.052,144.918Z" transform="translate(-249.052 -75.648)" fill="#fafafa" stroke="#e0e0e0" stroke-miterlimit="10" stroke-width="1.17"/><path d="M255.142,148.83a2.392,2.392,0,0,1,1.133-1.837l12.059-6.959c.627-.362,1.134-.126,1.134.526a2.391,2.391,0,0,1-1.134,1.837l-12.059,6.96C255.65,149.718,255.142,149.482,255.142,148.83Z" transform="translate(-249.007 -75.169)" fill="#455a64"/><path d="M255.142,153.488a2.392,2.392,0,0,1,1.133-1.836l12.059-6.96c.627-.362,1.134-.126,1.134.526a2.391,2.391,0,0,1-1.134,1.837l-12.059,6.96C255.65,154.376,255.142,154.14,255.142,153.488Z" transform="translate(-249.007 -75.134)" fill="#455a64"/><path d="M255.142,158.146a2.392,2.392,0,0,1,1.133-1.837l12.059-6.96c.627-.362,1.134-.126,1.134.526a2.391,2.391,0,0,1-1.134,1.837l-12.059,6.96C255.65,159.034,255.142,158.8,255.142,158.146Z" transform="translate(-249.007 -75.099)" fill="#455a64"/><path d="M354.759,98.141V96.259a.122.122,0,0,0-.185-.12l-1.451.654a.173.173,0,0,1-.242-.112,3.179,3.179,0,0,0-.323-.719.4.4,0,0,1-.021-.352l.966-1.949a.217.217,0,0,0-.086-.283l-1.049-.606a.222.222,0,0,0-.289.067l-1.2,1.812a.4.4,0,0,1-.315.156,3.264,3.264,0,0,0-.785.081.173.173,0,0,1-.218-.154l-.159-1.583a.121.121,0,0,0-.2-.1l-1.629.941a.438.438,0,0,0-.194.3l-.163,1.813a.607.607,0,0,1-.169.339,9.747,9.747,0,0,0-.906.958.312.312,0,0,1-.32.091l-1.046-.365a.255.255,0,0,0-.294.109l-1.2,2.075a.255.255,0,0,0,.052.308l.839.723a.31.31,0,0,1,.082.322,9.861,9.861,0,0,0-.377,1.263.61.61,0,0,1-.209.316L342.18,103.3a.44.44,0,0,0-.166.32V105.5a.121.121,0,0,0,.185.12l1.451-.654a.173.173,0,0,1,.242.112,3.167,3.167,0,0,0,.323.719.4.4,0,0,1,.021.352l-.966,1.949a.219.219,0,0,0,.086.284l1.049.605a.222.222,0,0,0,.289-.067l1.205-1.812a.4.4,0,0,1,.315-.156,3.263,3.263,0,0,0,.785-.081.173.173,0,0,1,.218.154l.159,1.583a.121.121,0,0,0,.2.1l1.629-.941a.439.439,0,0,0,.194-.3l.163-1.813a.609.609,0,0,1,.17-.339,9.869,9.869,0,0,0,.9-.958.312.312,0,0,1,.32-.091l1.046.365a.255.255,0,0,0,.294-.109l1.2-2.074a.256.256,0,0,0-.052-.309l-.839-.723a.31.31,0,0,1-.081-.322,9.86,9.86,0,0,0,.377-1.263.61.61,0,0,1,.209-.316l1.489-1.048A.44.44,0,0,0,354.759,98.141Zm-6.372,5.918c-1.521.878-2.753.166-2.753-1.59a6.086,6.086,0,0,1,2.753-4.769c1.52-.878,2.752-.166,2.752,1.59A6.087,6.087,0,0,1,348.387,104.059Z" transform="translate(-248.359 -75.52)" fill="#37474f"/><g transform="translate(34.897 51.633)"><path d="M306.087,144.223c12.37-7.141,22.4-1.352,22.4,12.931s-10.027,31.65-22.4,38.792-22.4,1.352-22.4-12.931S293.718,151.365,306.087,144.223Z" transform="translate(-283.691 -141.164)" fill="#455a64"/><path d="M305.819,155.365c4.013-2.317,7.267-.439,7.267,4.194a16.063,16.063,0,0,1-7.267,12.586c-4.013,2.316-7.266.438-7.266-4.2A16.059,16.059,0,0,1,305.819,155.365Z" transform="translate(-283.58 -141.066)" fill="#fff"/><path d="M320.186,179.946c0-7.613-5.346-10.7-11.937-6.892l-4.122,2.379c-6.592,3.806-11.937,13.064-11.937,20.676v2.076a12.245,12.245,0,0,0,3.849.594,20.2,20.2,0,0,0,9.985-3.06,44.123,44.123,0,0,0,14.163-14.009Z" transform="translate(-283.628 -140.938)" fill="#fff"/></g><path d="M331.6,227.8l13.752-7.94c.722-.417,1.308-.227,1.308.426a2.62,2.62,0,0,1-1.308,1.937l-13.752,7.94c-.722.417-1.309.227-1.309-.426A2.624,2.624,0,0,1,331.6,227.8Z" transform="translate(-248.446 -74.574)" fill="#37474f"/><g transform="translate(12.278 176.219)"><path d="M263.42,262.519l20.192-11.658c1.2-.7,2.181-.132,2.181,1.259v13.865a4.819,4.819,0,0,1-2.181,3.778L263.42,281.419c-1.2.7-2.181.132-2.181-1.259V266.3A4.822,4.822,0,0,1,263.42,262.519Z" transform="translate(-261.239 -250.562)" fill="url(#b)"/><path d="M266.611,264.413l13.751-7.94c.722-.417,1.309-.227,1.309.426a2.624,2.624,0,0,1-1.309,1.937l-13.751,7.94c-.723.417-1.309.226-1.309-.426A2.618,2.618,0,0,1,266.611,264.413Z" transform="translate(-261.209 -250.52)" fill="#fafafa"/><path d="M265.3,271.371v4.065c0,.834.585,1.173,1.309.756l13.751-7.94a2.894,2.894,0,0,0,1.309-2.267v-4.066c0-.834-.586-1.173-1.309-.756L266.611,269.1A2.89,2.89,0,0,0,265.3,271.371Z" transform="translate(-261.209 -250.485)" fill="#fafafa"/></g><g transform="translate(45.016 157.318)"><path d="M295.916,243.757,316.108,232.1c1.2-.7,2.181-.132,2.181,1.259v13.865A4.822,4.822,0,0,1,316.108,251l-20.192,11.657c-1.2.7-2.181.132-2.181-1.259V247.535A4.823,4.823,0,0,1,295.916,243.757Z" transform="translate(-293.735 -231.801)" fill="url(#b)"/><path d="M299.107,245.652l13.751-7.94c.722-.418,1.309-.227,1.309.425a2.621,2.621,0,0,1-1.309,1.937l-13.751,7.94c-.723.417-1.309.227-1.309-.425A2.618,2.618,0,0,1,299.107,245.652Z" transform="translate(-293.705 -231.759)" fill="#fafafa"/><path d="M297.8,252.61v4.065c0,.834.585,1.173,1.309.756l13.751-7.94a2.894,2.894,0,0,0,1.309-2.267v-4.066c0-.834-.585-1.173-1.309-.756l-13.751,7.94A2.893,2.893,0,0,0,297.8,252.61Z" transform="translate(-293.705 -231.724)" fill="#fafafa"/></g><g transform="translate(77.755 138.416)"><path d="M328.412,224.995,348.6,213.336c1.2-.7,2.181-.131,2.181,1.259V228.46a4.822,4.822,0,0,1-2.181,3.778L328.413,243.9c-1.2.7-2.182.132-2.182-1.259V228.773A4.822,4.822,0,0,1,328.412,224.995Z" transform="translate(-326.231 -213.039)" fill="url(#b)"/><path d="M331.6,226.889l13.751-7.94c.723-.417,1.309-.227,1.309.426a2.618,2.618,0,0,1-1.309,1.937l-13.751,7.94c-.722.417-1.309.227-1.309-.426A2.624,2.624,0,0,1,331.6,226.889Z" transform="translate(-326.201 -212.996)" fill="#fafafa"/><path d="M330.294,233.847v4.065c0,.835.586,1.174,1.309.756l13.751-7.94a2.89,2.89,0,0,0,1.309-2.267V224.4c0-.835-.586-1.173-1.309-.756L331.6,231.58A2.894,2.894,0,0,0,330.294,233.847Z" transform="translate(-326.201 -212.961)" fill="#fafafa"/></g><path d="M265.6,294.365l81.307-46.943c2.409-1.391,4.362-.4,4.362,2.206a9.356,9.356,0,0,1-4.362,7.245L265.6,303.815c-2.409,1.391-4.362.4-4.362-2.206A9.354,9.354,0,0,1,265.6,294.365Z" transform="translate(-248.961 -74.371)" fill="#e0e0e0"/><path d="M265.6,313.126l81.307-46.942c2.409-1.391,4.362-.4,4.362,2.206a9.354,9.354,0,0,1-4.362,7.244L265.6,322.577c-2.409,1.391-4.362.4-4.362-2.206A9.356,9.356,0,0,1,265.6,313.126Z" transform="translate(-248.961 -74.231)" fill="#e0e0e0"/><path d="M291.855,321.184,320.23,304.8c1.2-.7,2.181-.131,2.181,1.259v9.14a4.824,4.824,0,0,1-2.182,3.778L291.855,335.36c-1.2.7-2.181.132-2.181-1.259v-9.139A4.82,4.82,0,0,1,291.855,321.184Z" transform="translate(-248.749 -73.941)" fill="url(#b)"/><g transform="translate(16.37 198.615)"><path d="M267.347,295.393a4.523,4.523,0,0,0-2.046,3.544c0,1.3.917,1.834,2.046,1.182a4.523,4.523,0,0,0,2.046-3.544C269.393,295.269,268.478,294.74,267.347,295.393Z" transform="translate(-265.301 -272.626)" fill="#fafafa"/><path d="M273.781,291.672a4.525,4.525,0,0,0-2.045,3.545c0,1.3.916,1.834,2.045,1.182a4.523,4.523,0,0,0,2.046-3.545C275.827,291.549,274.912,291.02,273.781,291.672Z" transform="translate(-265.253 -272.654)" fill="#fafafa"/><path d="M280.216,287.952a4.523,4.523,0,0,0-2.046,3.544c0,1.306.916,1.835,2.046,1.182a4.523,4.523,0,0,0,2.046-3.544C282.262,287.829,281.345,287.3,280.216,287.952Z" transform="translate(-265.205 -272.681)" fill="#fafafa"/><path d="M286.65,284.232a4.523,4.523,0,0,0-2.046,3.544c0,1.306.916,1.835,2.046,1.182a4.52,4.52,0,0,0,2.046-3.544C288.7,284.109,287.781,283.58,286.65,284.232Z" transform="translate(-265.157 -272.709)" fill="#fafafa"/><path d="M293.084,280.512a4.526,4.526,0,0,0-2.046,3.544c0,1.306.917,1.835,2.046,1.182a4.521,4.521,0,0,0,2.046-3.544C295.13,280.388,294.215,279.859,293.084,280.512Z" transform="translate(-265.109 -272.737)" fill="#fafafa"/><path d="M299.519,276.792a4.522,4.522,0,0,0-2.046,3.544c0,1.3.916,1.835,2.046,1.182a4.525,4.525,0,0,0,2.045-3.544C301.564,276.668,300.649,276.139,299.519,276.792Z" transform="translate(-265.061 -272.765)" fill="#fafafa"/><path d="M305.953,273.072a4.52,4.52,0,0,0-2.046,3.544c0,1.3.916,1.834,2.046,1.182A4.526,4.526,0,0,0,308,274.254C308,272.948,307.082,272.419,305.953,273.072Z" transform="translate(-265.013 -272.792)" fill="#fafafa"/></g><g transform="translate(16.37 217.537)"><path d="M267.347,314.175a4.525,4.525,0,0,0-2.046,3.544c0,1.3.917,1.834,2.046,1.182a4.523,4.523,0,0,0,2.046-3.544C269.393,314.051,268.478,313.522,267.347,314.175Z" transform="translate(-265.301 -291.408)" fill="#fafafa"/><path d="M273.781,310.455A4.522,4.522,0,0,0,271.736,314c0,1.3.916,1.834,2.045,1.182a4.523,4.523,0,0,0,2.046-3.544C275.827,310.331,274.912,309.8,273.781,310.455Z" transform="translate(-265.253 -291.436)" fill="#fafafa"/><path d="M280.216,306.735a4.52,4.52,0,0,0-2.046,3.544c0,1.3.916,1.834,2.046,1.182a4.526,4.526,0,0,0,2.046-3.545C282.262,306.611,281.345,306.082,280.216,306.735Z" transform="translate(-265.205 -291.463)" fill="#fafafa"/><path d="M286.65,303.014a4.523,4.523,0,0,0-2.046,3.544c0,1.306.916,1.835,2.046,1.182A4.52,4.52,0,0,0,288.7,304.2C288.7,302.891,287.781,302.362,286.65,303.014Z" transform="translate(-265.157 -291.491)" fill="#fafafa"/><path d="M293.084,299.294a4.526,4.526,0,0,0-2.046,3.544c0,1.306.917,1.835,2.046,1.182a4.52,4.52,0,0,0,2.046-3.544C295.13,299.171,294.215,298.642,293.084,299.294Z" transform="translate(-265.109 -291.519)" fill="#fafafa"/><path d="M299.519,295.574a4.523,4.523,0,0,0-2.046,3.544c0,1.306.916,1.835,2.046,1.182a4.522,4.522,0,0,0,2.045-3.544C301.564,295.451,300.649,294.921,299.519,295.574Z" transform="translate(-265.061 -291.547)" fill="#fafafa"/><path d="M305.953,291.854a4.522,4.522,0,0,0-2.046,3.544c0,1.306.916,1.834,2.046,1.182A4.525,4.525,0,0,0,308,293.036C308,291.73,307.082,291.2,305.953,291.854Z" transform="translate(-265.013 -291.574)" fill="#fafafa"/></g><g transform="translate(38.861 111.245)"><g transform="translate(0.289)"><path d="M188.079,370.249c4.647-2.412,9.827-2.133,15.007,3.909a2.867,2.867,0,0,0-1.275.348,5.312,5.312,0,0,0-1.041.712,15.69,15.69,0,0,0-2.69-2.094l-.7,1.859a15.079,15.079,0,0,1,2.115,1.672,12.509,12.509,0,0,0-1.356,2.506c-.627-.711-5.623-5.942-13.426-1.892a23.041,23.041,0,0,0-5.267,3.9,2.946,2.946,0,0,1-.517.518l-.158.146q-.294.3-.6.633a68.726,68.726,0,0,0-5.095,6.939l.7-.363a1.5,1.5,0,0,1,1.187,0c.8.4,1.225,1.621,1.284,3.671L180,390.767c.435-.226.678-.851.719-1.861l.138-3.526,1.317-.683-.135,3.446a8.869,8.869,0,0,1-.223,1.682l3.945-2.047c.439-.228.674-.849.713-1.859l.139-3.526,1.316-.683-.135,3.446a9.071,9.071,0,0,1-.213,1.671l6.647-3.449c.072-1.733-.74-2.692-1.827-2.164a4.576,4.576,0,0,0-1.613,1.955c-.116-.239-.312-.615-.595-1.166a5.935,5.935,0,0,1,2.352-2.859c2.165-1.109,3.18.779,3.017,4.909l-.028.726-25.652,13.314a5.491,5.491,0,0,1-2.244,3.615c-1.4.727-2.294-.582-2.2-2.865a8.389,8.389,0,0,1,.369-2.221l-.85.441c-.777.4-1.321,1.825-1.4,3.738l-.228,5.823-1.161.6.244-6.231c.111-2.807,1.065-5.126,2.6-5.92l2.93-1.521c1.233-.612,2.183.412,2.16,2.347l4.764-2.472a3.089,3.089,0,0,0-.511-1.808.9.9,0,0,0-1.238-.241l-2.366,1.228C170.875,392.318,178.3,375.325,188.079,370.249ZM167.722,399.89a3.4,3.4,0,0,0,1.184-2.8c.052-1.316-.366-2.075-1.08-1.7a3.409,3.409,0,0,0-1.2,2.822c-.05,1.28.394,2.046,1.094,1.683m29-25.3.695-1.842a11.048,11.048,0,0,0-2.147-.872l-.556,1.862a10.268,10.268,0,0,1,2.008.852m-2.673-1.041.552-1.846a16.836,16.836,0,0,0-2.2-.226l-.39,1.833a9.774,9.774,0,0,1,2.037.239m-2.735-.226.384-1.809a10.617,10.617,0,0,0-2.287.432l-.2,1.722a10.66,10.66,0,0,1,2.106-.345m-2.707.523.206-1.7a14.561,14.561,0,0,0-1.905.832l-.127.066-.061,1.571a12.868,12.868,0,0,1,1.889-.766m-5.768,3.291c.44-.356.887-.695,1.348-1.02l-.04-1.368c-.5.38-.985.782-1.463,1.2l.15,1.189,0,0m3.267-2.214.06-1.535c-.5.288-1,.617-1.475.958l.034,1.406c.455-.3.914-.574,1.381-.83m-4.806,3.562c.326-.311.66-.605,1-.9l-.152-1.153q-.53.489-1.047,1.014l.2,1.035m-1.407,1.385c.286-.3.579-.592.872-.879l-.194-1c-.289.307-.58.628-.861.945l.183.93m-1.315,1.445c.258-.3.521-.59.792-.888l-.176-.892c-.277.322-.55.648-.813.977l.192.8,0,0m-1.075,1.277c.226-.281.451-.555.686-.834l-.184-.773c-.245.313-.48.62-.712.933l.211.674m-.853,1.084c.184-.238.377-.488.566-.728l-.2-.66c-.194.264-.388.53-.573.789l.2.6m-.647.856.369-.49-.2-.574c-.124.177-.247.356-.366.531l.194.533m-1.138,1.609c.1-.152.2-.3.308-.452l-.188-.451c-.105.169-.206.327-.306.479l.181.426,0,0m.579-.835c.095-.134.19-.262.279-.394l-.181-.518c-.1.152-.2.3-.3.445l.2.467m-1.14,1.667c.095-.141.191-.291.291-.435l-.177-.408c-.1.167-.2.323-.293.48l.178.363m-.544.845c.086-.144.182-.286.278-.443l-.166-.349-.287.484.171.31,0,0m-.449.71c.076-.118.158-.245.234-.378l-.159-.3c-.082.142-.158.275-.23.4l.155.268m-.8,1.371c0-.007.072-.131.206-.365l-.124-.256c-.083.156-.155.294-.213.4l.112.227.014-.007,0,0m.408-.711c.058-.1.119-.2.187-.318l-.147-.259c-.062.111-.12.22-.174.318l.129.261,0,0m-.724.867v-.008l0,.01,0,0" transform="translate(-162.168 -368.832)" fill="#aa000b"/></g><g transform="translate(0 36.797)"><path d="M165.317,411.053a2.836,2.836,0,0,1,1.042-.32,1.715,1.715,0,0,1,.824.106l-.473,2.141a1.035,1.035,0,0,0-.4-.073,2.79,2.79,0,0,0-.5.026,1.613,1.613,0,0,0-.462.148l-.042.021a3.418,3.418,0,0,0-.863.661,4.113,4.113,0,0,0-.683.989,5.5,5.5,0,0,0-.439,1.268,8.574,8.574,0,0,0-.2,1.555,4.53,4.53,0,0,0,.1,1.259,1.713,1.713,0,0,0,.39.788.9.9,0,0,0,.625.3,1.617,1.617,0,0,0,.784-.2l.039-.02.061-.031a2.449,2.449,0,0,0,.426-.286,1.9,1.9,0,0,0,.379-.4l.049-1.273-1.073.558.078-2.006,2.322-1.2-.174,4.449a3.448,3.448,0,0,1-.364.58,6.517,6.517,0,0,1-.559.661,7.834,7.834,0,0,1-.642.611,3.965,3.965,0,0,1-.612.424l-.039.02a2.364,2.364,0,0,1-1.318.307,1.5,1.5,0,0,1-1-.514,2.885,2.885,0,0,1-.6-1.269,7.179,7.179,0,0,1-.149-1.91,13.171,13.171,0,0,1,.359-2.65,10.427,10.427,0,0,1,.769-2.137,7.113,7.113,0,0,1,1.065-1.585,4.65,4.65,0,0,1,1.23-.972Z" transform="translate(-161.839 -410.723)" fill="#202021"/></g><g transform="translate(6.643 33.19)"><path d="M174.057,406.617l-.078,2-3.017,1.566-.088,2.246,2.674-1.388-.079,2.007-2.674,1.388-.089,2.268,3.136-1.627-.079,2.006-4.361,2.263.413-10.527Z" transform="translate(-169.402 -406.617)" fill="#202021"/></g><g transform="translate(12.275 30.265)"><path d="M180.472,403.287l-.078,2-3.021,1.568-.088,2.246,2.674-1.388-.079,2.007-2.674,1.388-.089,2.268,3.136-1.627-.079,2.006-4.361,2.263.413-10.527Z" transform="translate(-175.813 -403.287)" fill="#202021"/></g><g transform="translate(17.816 27.589)"><path d="M186.4,400.241l-.078,2-1.513.785-.335,8.528-1.225.636.335-8.528-1.458.757.078-2Z" transform="translate(-182.121 -400.241)" fill="#202021"/></g><g transform="translate(22.465 25.301)"><path d="M190.739,397.888a1.973,1.973,0,0,1,1.02-.249,1.667,1.667,0,0,1,.762.209l-.557,2.2a1.837,1.837,0,0,0-.54-.275,1.053,1.053,0,0,0-.77.114l-.028.015a2.258,2.258,0,0,0-.691.608,4.7,4.7,0,0,0-.6,1,7.316,7.316,0,0,0-.435,1.273,6.988,6.988,0,0,0-.194,1.4,5.832,5.832,0,0,0,.078,1.32,2.226,2.226,0,0,0,.333.881.88.88,0,0,0,.562.392,1.16,1.16,0,0,0,.73-.143l.033-.018.059-.029a2.783,2.783,0,0,0,.806-.683,5.089,5.089,0,0,0,.562-.855l.434,1.6a5.614,5.614,0,0,1-.39.58,6.243,6.243,0,0,1-.689.778,3.641,3.641,0,0,1-.834.6l-.054.028a1.975,1.975,0,0,1-1.294.222,1.474,1.474,0,0,1-.938-.639,3.591,3.591,0,0,1-.547-1.354,7.9,7.9,0,0,1-.131-1.912,12.835,12.835,0,0,1,.3-2.315,10.608,10.608,0,0,1,.685-2.05,7.287,7.287,0,0,1,1-1.632,4.032,4.032,0,0,1,1.189-1.01l.061-.031Z" transform="translate(-187.413 -397.636)" fill="#202021"/></g><g transform="translate(28.361 22.219)"><path d="M200.327,396.173a6.89,6.89,0,0,1,.166,1.936,10.23,10.23,0,0,1-.329,2.214,11.051,11.051,0,0,1-.762,2.069,8.3,8.3,0,0,1-1.065,1.685,4.2,4.2,0,0,1-1.246,1.052,1.864,1.864,0,0,1-1.214.224,1.639,1.639,0,0,1-.965-.632,3.439,3.439,0,0,1-.614-1.355,7.074,7.074,0,0,1-.165-1.958,10.555,10.555,0,0,1,.329-2.192,11.48,11.48,0,0,1,.748-2.077,8.3,8.3,0,0,1,1.057-1.7,4.128,4.128,0,0,1,1.246-1.069,1.786,1.786,0,0,1,1.212-.207,1.708,1.708,0,0,1,.973.649A3.613,3.613,0,0,1,200.327,396.173Zm-1.3,3.978a6.091,6.091,0,0,0,.1-2.64,2.468,2.468,0,0,0-.365-.872,1.022,1.022,0,0,0-.574-.414,1.137,1.137,0,0,0-.744.135,2.571,2.571,0,0,0-.764.648,5.049,5.049,0,0,0-.637,1.042,7.112,7.112,0,0,0-.643,2.7,4.574,4.574,0,0,0,.095,1.233,2.28,2.28,0,0,0,.374.852,1.03,1.03,0,0,0,.589.407,1.067,1.067,0,0,0,.723-.125l.03-.017.028-.014a2.45,2.45,0,0,0,.723-.625,4.738,4.738,0,0,0,.623-1.036,6.72,6.72,0,0,0,.439-1.275" transform="translate(-194.125 -394.127)" fill="#202021"/></g><g transform="translate(35.751 16.53)"><path d="M209.364,387.65l-.412,10.954-1.23.638.2-5.024L205.7,400.15l-1.791-3.543-.185,4.711-1.184.614.43-10.963,2.866,5.934Z" transform="translate(-202.539 -387.65)" fill="#202021"/></g><g transform="translate(19.088 12.899)"><path d="M184.8,383.517l-.071,1.817-1.156.6.071-1.817Z" transform="translate(-183.569 -383.517)" fill="#aa000b"/></g><g transform="translate(17.333 13.81)"><path d="M182.8,384.554l-.071,1.817-1.156.6.071-1.817Z" transform="translate(-181.571 -384.554)" fill="#aa000b"/></g><g transform="translate(24.38 20.892)"><path d="M190.822,392.616l-.072,1.832-1.156.6.072-1.832Z" transform="translate(-189.594 -392.616)" fill="#aa000b"/></g><g transform="translate(22.63 21.8)"><path d="M188.829,393.651l-.072,1.832-1.156.6.072-1.832Z" transform="translate(-187.601 -393.651)" fill="#aa000b"/></g><g transform="translate(29.861 18.043)"><path d="M197.071,389.373,197,391.2l-1.166.6.072-1.832Z" transform="translate(-195.833 -389.373)" fill="#aa000b"/></g><g transform="translate(10.308 21.217)"><path d="M173.579,392.986v.007l0,0Z" transform="translate(-173.574 -392.986)" fill="#8b8a8a"/></g><g transform="translate(36.238 7.179)"><path d="M209,377.594c.974,1.075,1.123,3.455.362,5.844l.027-.014-3.044,8.31a.6.6,0,0,1-.242.332.153.153,0,0,1-.226-.083l-2.5-5.43a6.415,6.415,0,0,1-.271-2.245,10.4,10.4,0,0,1,1.134-4.242,6.292,6.292,0,0,1,2.44-2.778A1.8,1.8,0,0,1,209,377.594Zm-2.655,8.222a5.221,5.221,0,0,0,1.979-4.1c.093-1.7-.679-2.675-1.733-2.178a5.214,5.214,0,0,0-1.979,4.1c-.1,1.7.679,2.667,1.733,2.17" transform="translate(-203.093 -377.005)" fill="#202021"/></g></g></g><g transform="translate(358.769 89.703)"><g transform="translate(0 0)"><g transform="translate(0 114.549)"><path d="M396.344,334.737a19.617,19.617,0,0,1-9.921-2.623C379.163,327.921,375,319.148,375,308.044c0-19.528,12.411-41.99,28.255-51.137,8.531-4.925,17-5.459,23.859-1.5,7.26,4.192,11.424,12.965,11.424,24.069,0,19.528-12.411,41.99-28.254,51.137A28.074,28.074,0,0,1,396.344,334.737Zm20.814-67.887a14.919,14.919,0,0,0-6.876,2.229c-11.507,6.643-21.227,24.486-21.227,38.965,0,5.859,1.643,10.307,4.4,11.9,3.134,1.809,7.487-.165,9.8-1.5,11.506-6.643,21.227-24.486,21.227-38.965,0-5.859-1.644-10.307-4.4-11.9A5.773,5.773,0,0,0,417.158,266.85Z" transform="translate(-374.999 -252.782)" fill="#455a64"/><path d="M426.858,282.492c0-10.968-6.91-15.024-6.91-15.024h0c2.752,1.59,4.4,6.038,4.4,11.9,0,14.478-9.721,32.321-21.227,38.965-2.316,1.336-6.669,3.31-9.8,1.5,0,0,5.832,3.619,13.888-.777C418.865,312.693,426.858,296.969,426.858,282.492Z" transform="translate(-374.862 -252.672)" fill="#37474f"/></g><path d="M415.716,146.348a7.267,7.267,0,0,0-14.535,0v.02h0V261.931h0a3.61,3.61,0,0,0,2.129,2.967,11.354,11.354,0,0,0,10.277,0,3.612,3.612,0,0,0,2.129-2.967h0V146.368h0Z" transform="translate(-374.804 -139.081)" fill="#37474f"/><path d="M410.056,171.985a9.274,9.274,0,0,0-4.2-7.269,2.912,2.912,0,0,0-3-.265l0-.006-17.932,10.331-.433.258a.975.975,0,0,0-.175.1,5.691,5.691,0,0,0-.858.7,5.94,5.94,0,0,0,7.005,9.443c.114-.062.228-.135.34-.2l18.045-10.393,0,0A2.957,2.957,0,0,0,410.056,171.985Z" transform="translate(-374.949 -138.894)" fill="#455a64"/><path d="M410.079,200.71a9.276,9.276,0,0,0-4.2-7.269,2.914,2.914,0,0,0-3-.265l0-.006L381.861,205.24l-.434.258a.965.965,0,0,0-.175.1,5.621,5.621,0,0,0-.857.7,5.939,5.939,0,0,0,7,9.443c.114-.062.228-.135.34-.2l21.129-12.131,0-.005A2.956,2.956,0,0,0,410.079,200.71Z" transform="translate(-374.972 -138.68)" fill="#455a64"/></g></g></g></g></g></svg>