<svg xmlns="http://www.w3.org/2000/svg" xmlns:xlink="http://www.w3.org/1999/xlink" width="195.693" height="360.791" viewBox="0 0 195.693 360.791"><defs><clipPath id="a"><rect width="195.693" height="360.791" fill="none"/></clipPath></defs><g clip-path="url(#a)" style="isolation:isolate"><g transform="translate(705.02 -359.804) rotate(-13)"><g transform="translate(-782.722 256.238)"><path d="M-609.989,256.238c5.446.75,10.926,1.309,16.332,2.284A131.2,131.2,0,0,1-533,286.639a132.925,132.925,0,0,1,41.082,58.15c1.321,3.595,2.312,7.311,3.6,11.439l-20.181,4.819c-16.969-50.994-51.888-78.972-105.628-84.188V256.238Z" transform="translate(781.453 -256.238)" fill="#ffebea"/><path d="M-644.2,317.265V421.236l40.166-9.638c.755,6.224,3.317,11.313,9.183,14.119a15.113,15.113,0,0,0,11.492.837c9.2-2.97,12.747-10.978,9.721-22.276l30.5-7.353c9.409,34.285-1.385,78.639-36.019,106.209a104.227,104.227,0,0,1-130.805-.625,104.079,104.079,0,0,1-30.276-121.793C-722.121,337.574-680.229,316.252-644.2,317.265Zm-15.926,132.521a22.319,22.319,0,0,0-22.2,22.138c-.115,12.084,10.348,22.492,22.405,22.289a22.43,22.43,0,0,0,22.037-22.347A22.28,22.28,0,0,0-660.123,449.786Zm-20.4-50.422a22.173,22.173,0,0,0,22.219-22.092A22.267,22.267,0,0,0-680.5,355.108a22.408,22.408,0,0,0-22.11,22.008A22.221,22.221,0,0,0-680.524,399.364Zm70.108,72.48a11.259,11.259,0,0,0,11.266,11.266,11.345,11.345,0,0,0,11.135-11.15A11.334,11.334,0,0,0-599.035,460.7,11.243,11.243,0,0,0-610.416,471.844ZM-696.438,416.2a11.031,11.031,0,0,0-11.052,11.074,11.146,11.146,0,0,0,11.224,11.252A11.291,11.291,0,0,0-685.143,427.4,11.192,11.192,0,0,0-696.438,416.2Z" transform="translate(782.465 -256.697)" fill="#f6f6f6"/><path d="M-647.59,284.369c0,6.683-.022,13.17.012,19.656.013,2.445-1.852,1.917-3.159,1.977a106.21,106.21,0,0,0-27.55,4.834c-27.622,8.847-49.232,25.47-64.441,50.255a112.1,112.1,0,0,0-16.8,59.163,112.455,112.455,0,0,0,22.257,68.419,112.381,112.381,0,0,0,58.84,41.946,112.413,112.413,0,0,0,71.388-1.157,112.841,112.841,0,0,0,51.625-36.032,113.651,113.651,0,0,0,24.57-55.452,121.372,121.372,0,0,0-1-40.8l20.63-5.222c9.315,34.027,3.373,92.307-43.725,133.66-45.557,40-115.389,44.732-165.756,10.864C-773.6,500.913-795.785,435.752-775,376.508-753.583,315.481-696.943,284.185-647.59,284.369Z" transform="translate(782.722 -256.45)" fill="#f6f6f6"/><path d="M-617.855,286.975c50.745.151,91.785,38.311,100.021,80.855q-9.709,2.242-19.446,4.49c-1.436.331-2.893.592-4.308,1-4.006,1.148-7.19,1.684-10.459-2.661-3.607-4.8-9.535-5.552-15.378-3.761a14.571,14.571,0,0,0-10.7,11.819c-.482,2.57-1.5,3.458-3.978,3.993-11.434,2.467-22.813,5.193-34.215,7.812-.759.174-1.546.229-2.679.39C-618.613,356.248-618.235,321.723-617.855,286.975Zm33.379,40.951a11.059,11.059,0,0,0-10.93-11.179,11.143,11.143,0,0,0-11.37,11.078c-.052,5.955,4.945,11.259,10.624,11.278A11.381,11.381,0,0,0-584.476,327.926Z" transform="translate(781.49 -256.469)" fill="#ffebea"/><path d="M-649.987,473.112a9.434,9.434,0,0,1-9.69,9.388,9.428,9.428,0,0,1-9.312-9.755,9.431,9.431,0,0,1,9.532-9.244A9.446,9.446,0,0,1-649.987,473.112Z" transform="translate(781.866 -257.797)" fill="#f6f6f6"/><path d="M-680.079,368.2a9.462,9.462,0,0,1,9.566,9.5,9.57,9.57,0,0,1-9.393,9.43,9.487,9.487,0,0,1-9.53-9.552A9.381,9.381,0,0,1-680.079,368.2Z" transform="translate(782.02 -257.08)" fill="#f6f6f6"/></g></g></g></svg>