<svg xmlns="http://www.w3.org/2000/svg" xmlns:xlink="http://www.w3.org/1999/xlink" width="133.008" height="68.902" viewBox="0 0 133.008 68.902"><defs><linearGradient id="a" x1="0.5" x2="0.5" y2="1" gradientUnits="objectBoundingBox"><stop offset="0" stop-color="#e0b154"/><stop offset="0.204" stop-color="#c18829"/><stop offset="0.495" stop-color="#ebc55c"/><stop offset="0.73" stop-color="#ddae45"/><stop offset="1" stop-color="#be8122"/></linearGradient></defs><g transform="translate(-230.933 107.589)"><path d="M144.011,361.79l-.046.046c4.948-3,8.651-4.95,8.651-4.95s10.927-7.527,19.033-10.655c.763-.273,1.522-.537,2.276-.782.2-.056.407-.116.6-.167a6.558,6.558,0,0,0,1.952-.615c40.9-11.765,70.265,15.966,73.388,19.065a16.811,16.811,0,0,1,4.955-4.46,104.219,104.219,0,0,0-8.6-6.856l2.475-3.71a113.048,113.048,0,0,1,10.927,8.651,17.157,17.157,0,0,1,3.835-.43,16.969,16.969,0,0,1,5.14.791C202.285,290.516,144.621,361.036,144.011,361.79Zm6.463-4.4h-.051l-.481-.717c.208-.2.467-.435.768-.712l.527.782C150.733,357.164,150.474,357.395,150.474,357.395Zm1.5-1.244-.56-.819c.2-.176.416-.365.643-.56l.62.833C152.422,355.8,152.19,355.984,151.977,356.15Zm1.453-1.12-.648-.874c.264-.222.546-.458.842-.7l.68.93C154,354.61,153.708,354.827,153.43,355.031Zm1.647-1.194-.717-.976q.507-.4,1.055-.833l.708,1.073C155.757,353.356,155.406,353.6,155.077,353.837Zm2.022-1.392-.745-1.134c.347-.259.7-.527,1.073-.8l.75,1.221C157.807,351.973,157.446,352.213,157.1,352.445Zm2.073-1.342-.786-1.281c.37-.264.745-.527,1.133-.8l.814,1.356C159.935,350.627,159.546,350.862,159.171,351.1Zm2.17-1.328-.847-1.411c.352-.241.717-.481,1.087-.722l.81,1.522C162.035,349.368,161.684,349.576,161.341,349.775Zm2.077-1.189L162.572,347c.449-.282.9-.564,1.365-.851l.861,1.679C164.325,348.082,163.867,348.337,163.418,348.586Zm2.42-1.3-.888-1.735q1.034-.618,2.128-1.226l.893,1.888C167.24,346.565,166.527,346.925,165.838,347.282Zm3.2-1.582-.925-1.948q1.291-.7,2.66-1.383l.851,2.16Q170.289,345.1,169.035,345.7Zm4.03-1.786-.879-2.235q1.485-.715,3.053-1.388l.824,2.447Q174.529,343.308,173.064,343.914Zm4.978-1.883-.861-2.549q1.589-.639,3.252-1.226l.916,2.716C180.221,341.3,179.12,341.661,178.042,342.031Zm5.33-1.633-.948-2.813q1.943-.631,3.974-1.175l.768,3.058Q185.229,339.891,183.372,340.4Zm5.848-1.346-.791-3.151c1.818-.43,3.683-.8,5.593-1.1l.356,3.451Q191.741,338.568,189.22,339.051Zm12.547-1.286c-1.8.023-3.576.12-5.316.278l-.361-3.53c1.851-.236,3.747-.4,5.677-.486Zm9.692.537a69.08,69.08,0,0,0-7.333-.532v-3.808a68.142,68.142,0,0,1,7.869.379Zm10.59,2.188a70.768,70.768,0,0,0-8.253-1.855l.541-4.006a70.087,70.087,0,0,1,8.947,1.865Zm10.821,4.085a74.257,74.257,0,0,0-8.059-3.225l1.244-4.034a77.328,77.328,0,0,1,8.711,3.387Zm10.7,6.019a85.082,85.082,0,0,0-8.041-4.714l1.911-3.9a90.051,90.051,0,0,1,8.591,4.932Z" transform="translate(86.968 -436.302)" fill="url(#a)"/><path d="M13.032,35.893a1.067,1.067,0,0,1-.9-.507L1.416,18.7h.06A12.456,12.456,0,0,1,0,12.8,12.616,12.616,0,0,1,3.81,3.749a13.162,13.162,0,0,1,18.4,0A12.612,12.612,0,0,1,24.547,18.7h.1L13.93,35.387A1.067,1.067,0,0,1,13.032,35.893ZM13.011,5.466a7.414,7.414,0,0,0-7.167,7.623,7.414,7.414,0,0,0,7.167,7.624,7.414,7.414,0,0,0,7.167-7.624A7.414,7.414,0,0,0,13.011,5.466Z" transform="translate(337.418 -75.081)" stroke="rgba(0,0,0,0)" stroke-width="1" fill="url(#a)"/></g></svg>